<svg width="2732" height="1811" xmlns="http://www.w3.org/2000/svg" xmlns:xlink="http://www.w3.org/1999/xlink" xml:space="preserve" overflow="hidden"><g transform="translate(-760 -375)"><g><rect x="2126" y="377" width="1365" height="1806" fill="#66B4FF" fill-opacity="1"/><rect x="761" y="377" width="1365" height="1806" fill="#0082FF" fill-opacity="1"/><path d="M1217.38 1366C1200.04 1366 1186 1352.16 1186 1335.06 1186 1317.97 1200.04 1304.12 1217.38 1304.12L1248.78 1304.12 1248.78 901.938C1248.78 884.842 1262.82 871 1280.16 871L1724.62 871C1741.96 871 1756 884.842 1756 901.938 1756 919.033 1741.96 932.875 1724.62 932.875L1693.22 932.875 1693.22 1335.06C1693.22 1352.16 1679.18 1366 1661.84 1366Z" fill="#0082FF" fill-rule="evenodd" fill-opacity="1"/><path d="M1312 902C1312 919.078 1297.9 932.933 1280.5 932.933 1271.8 932.933 1264.75 926.016 1264.75 917.467 1264.75 908.917 1271.8 902 1280.5 902ZM1249 1335.07C1249 1352.14 1234.89 1366 1217.5 1366 1200.1 1366 1186 1352.14 1186 1335.07 1186 1317.99 1200.1 1304.13 1217.5 1304.13 1226.2 1304.13 1233.25 1311.05 1233.25 1319.6 1233.25 1328.15 1226.2 1335.07 1217.5 1335.07Z" fill="#000000" fill-rule="evenodd" fill-opacity="0.2"/><path d="M1248.78 1304.12 1248.78 901.938C1248.78 884.842 1262.82 871 1280.16 871L1724.62 871C1741.96 871 1756 884.842 1756 901.938 1756 919.033 1741.96 932.875 1724.62 932.875L1693.22 932.875 1693.22 1335.06C1693.22 1352.16 1679.18 1366 1661.84 1366L1217.38 1366C1200.04 1366 1186 1352.16 1186 1335.06 1186 1317.97 1200.04 1304.12 1217.38 1304.12ZM1280.16 871C1297.49 871 1311.53 884.842 1311.53 901.938 1311.53 919.033 1297.49 932.875 1280.16 932.875 1271.47 932.875 1264.45 925.954 1264.45 917.406 1264.45 908.858 1271.47 901.938 1280.16 901.938L1311.53 901.938M1693.22 932.875 1280.16 932.875M1217.38 1304.12C1226.06 1304.12 1233.08 1311.05 1233.08 1319.59 1233.08 1328.14 1226.06 1335.06 1217.38 1335.06L1248.78 1335.06M1217.38 1366C1234.71 1366 1248.78 1352.16 1248.78 1335.06L1248.78 1304.12" stroke="#FFFFFF" stroke-width="10.3125" stroke-linecap="butt" stroke-linejoin="round" stroke-miterlimit="10" stroke-opacity="1" fill="none" fill-rule="evenodd"/><path d="M2587 873 3058 873 3058 1270.22C2822.5 1270.22 2822.5 1421.55 2587 1335.56Z" stroke="#FFFFFF" stroke-width="10.3125" stroke-linecap="butt" stroke-linejoin="miter" stroke-miterlimit="8" stroke-opacity="1" fill="#66B4FF" fill-rule="evenodd" fill-opacity="1"/><text fill="#FFFFFF" fill-opacity="1" font-family="Calibri,Calibri_MSFontService,sans-serif" font-style="normal" font-variant="normal" font-weight="400" font-stretch="normal" font-size="92" text-anchor="start" direction="ltr" writing-mode="lr-tb" unicode-bidi="normal" text-decoration="none" transform="matrix(1 0 0 1 1295.41 1105)">Smart</text><text fill="#FFFFFF" fill-opacity="1" font-family="Calibri,Calibri_MSFontService,sans-serif" font-style="normal" font-variant="normal" font-weight="400" font-stretch="normal" font-size="92" text-anchor="start" direction="ltr" writing-mode="lr-tb" unicode-bidi="normal" text-decoration="none" transform="matrix(1 0 0 1 1295.41 1215)">Contract</text><text fill="#FFFFFF" fill-opacity="1" font-family="Calibri,Calibri_MSFontService,sans-serif" font-style="normal" font-variant="normal" font-weight="400" font-stretch="normal" font-size="92" text-anchor="start" direction="ltr" writing-mode="lr-tb" unicode-bidi="normal" text-decoration="none" transform="matrix(1 0 0 1 2673.93 1106)">Aspect</text><path d="M2020 1087.47 2087.66 1087.47 2087.66 1015 2151.34 1015 2151.34 1087.47 2219 1087.47 2219 1150.53 2151.34 1150.53 2151.34 1223 2087.66 1223 2087.66 1150.53 2020 1150.53Z" fill="#FFFFFF" fill-rule="evenodd" fill-opacity="1"/><text fill="#FFFFFF" fill-opacity="1" font-family="Calibri,Calibri_MSFontService,sans-serif" font-style="normal" font-variant="normal" font-weight="700" font-stretch="normal" font-size="92" text-anchor="start" direction="ltr" writing-mode="lr-tb" unicode-bidi="normal" text-decoration="none" transform="matrix(1 0 0 1 1144.02 597)">Build Basic </text><text fill="#FFFFFF" fill-opacity="1" font-family="Calibri,Calibri_MSFontService,sans-serif" font-style="normal" font-variant="normal" font-weight="700" font-stretch="normal" font-size="92" text-anchor="start" direction="ltr" writing-mode="lr-tb" unicode-bidi="normal" text-decoration="none" transform="matrix(1 0 0 1 1574.28 597)">Logic</text><text fill="#FFFFFF" fill-opacity="1" font-family="Calibri,Calibri_MSFontService,sans-serif" font-style="normal" font-variant="normal" font-weight="700" font-stretch="normal" font-size="92" text-anchor="start" direction="ltr" writing-mode="lr-tb" unicode-bidi="normal" text-decoration="none" transform="matrix(1 0 0 1 1035.17 707)">Using Smart</text><text fill="#FFFFFF" fill-opacity="1" font-family="Calibri,Calibri_MSFontService,sans-serif" font-style="normal" font-variant="normal" font-weight="700" font-stretch="normal" font-size="92" text-anchor="start" direction="ltr" writing-mode="lr-tb" unicode-bidi="normal" text-decoration="none" transform="matrix(1 0 0 1 1515.27 707)">Contracts</text><text fill="#FFFFFF" fill-opacity="1" font-family="Calibri,Calibri_MSFontService,sans-serif" font-style="normal" font-variant="normal" font-weight="700" font-stretch="normal" font-size="92" text-anchor="start" direction="ltr" writing-mode="lr-tb" unicode-bidi="normal" text-decoration="none" transform="matrix(1 0 0 1 2339.76 597)">Realize Custom Features</text><text fill="#FFFFFF" fill-opacity="1" font-family="Calibri,Calibri_MSFontService,sans-serif" font-style="normal" font-variant="normal" font-weight="700" font-stretch="normal" font-size="92" text-anchor="start" direction="ltr" writing-mode="lr-tb" unicode-bidi="normal" text-decoration="none" transform="matrix(1 0 0 1 2538.48 707)">Using Aspects</text><text fill="#FFFFFF" fill-opacity="1" font-family="Arial,Arial_MSFontService,sans-serif" font-style="normal" font-variant="normal" font-weight="400" font-stretch="normal" font-size="73" text-anchor="start" direction="ltr" writing-mode="lr-tb" unicode-bidi="normal" text-decoration="none" transform="matrix(1 0 0 1 2262.31 1552)">•</text><text fill="#FFFFFF" fill-opacity="1" font-family="Calibri,Calibri_MSFontService,sans-serif" font-style="normal" font-variant="normal" font-weight="700" font-stretch="normal" font-size="73" text-anchor="start" direction="ltr" writing-mode="lr-tb" unicode-bidi="normal" text-decoration="none" transform="matrix(1 0 0 1 2386.06 1552)">WASM VM &amp; native speed</text><text fill="#FFFFFF" fill-opacity="1" font-family="Arial,Arial_MSFontService,sans-serif" font-style="normal" font-variant="normal" font-weight="400" font-stretch="normal" font-size="73" text-anchor="start" direction="ltr" writing-mode="lr-tb" unicode-bidi="normal" text-decoration="none" transform="matrix(1 0 0 1 2262.31 1728)">•</text><text fill="#FFFFFF" fill-opacity="1" font-family="Calibri,Calibri_MSFontService,sans-serif" font-style="normal" font-variant="normal" font-weight="700" font-stretch="normal" font-size="73" text-anchor="start" direction="ltr" writing-mode="lr-tb" unicode-bidi="normal" text-decoration="none" transform="matrix(1 0 0 1 2386.06 1728)">Fully customizable</text><text fill="#FFFFFF" fill-opacity="1" font-family="Calibri,Calibri_MSFontService,sans-serif" font-style="normal" font-variant="normal" font-weight="400" font-stretch="normal" font-size="73" text-anchor="start" direction="ltr" writing-mode="lr-tb" unicode-bidi="normal" text-decoration="none" transform="matrix(1 0 0 1 2262.31 1904)">•</text><text fill="#FFFFFF" fill-opacity="1" font-family="Calibri,Calibri_MSFontService,sans-serif" font-style="normal" font-variant="normal" font-weight="700" font-stretch="normal" font-size="73" text-anchor="start" direction="ltr" writing-mode="lr-tb" unicode-bidi="normal" text-decoration="none" transform="matrix(1 0 0 1 2386.06 1904)">Plug &amp; Play</text><text fill="#FFFFFF" fill-opacity="1" font-family="Arial,Arial_MSFontService,sans-serif" font-style="normal" font-variant="normal" font-weight="400" font-stretch="normal" font-size="73" text-anchor="start" direction="ltr" writing-mode="lr-tb" unicode-bidi="normal" text-decoration="none" transform="matrix(1 0 0 1 1007.29 1540)">•</text><text fill="#FFFFFF" fill-opacity="1" font-family="Calibri,Calibri_MSFontService,sans-serif" font-style="normal" font-variant="normal" font-weight="700" font-stretch="normal" font-size="73" text-anchor="start" direction="ltr" writing-mode="lr-tb" unicode-bidi="normal" text-decoration="none" transform="matrix(1 0 0 1 1131.04 1540)">EVM equivalence</text><text fill="#FFFFFF" fill-opacity="1" font-family="Arial,Arial_MSFontService,sans-serif" font-style="normal" font-variant="normal" font-weight="400" font-stretch="normal" font-size="73" text-anchor="start" direction="ltr" writing-mode="lr-tb" unicode-bidi="normal" text-decoration="none" transform="matrix(1 0 0 1 1007.29 1716)">•</text><text fill="#FFFFFF" fill-opacity="1" font-family="Calibri,Calibri_MSFontService,sans-serif" font-style="normal" font-variant="normal" font-weight="700" font-stretch="normal" font-size="73" text-anchor="start" direction="ltr" writing-mode="lr-tb" unicode-bidi="normal" text-decoration="none" transform="matrix(1 0 0 1 1131.04 1716)">Rich tooling &amp; Ecosystem</text><text fill="#FFFFFF" fill-opacity="1" font-family="Arial,Arial_MSFontService,sans-serif" font-style="normal" font-variant="normal" font-weight="400" font-stretch="normal" font-size="73" text-anchor="start" direction="ltr" writing-mode="lr-tb" unicode-bidi="normal" text-decoration="none" transform="matrix(1 0 0 1 1007.29 1892)">•</text><text fill="#FFFFFF" fill-opacity="1" font-family="Calibri,Calibri_MSFontService,sans-serif" font-style="normal" font-variant="normal" font-weight="700" font-stretch="normal" font-size="73" text-anchor="start" direction="ltr" writing-mode="lr-tb" unicode-bidi="normal" text-decoration="none" transform="matrix(1 0 0 1 1131.04 1892)">Low barrier to entry</text></g></g></svg>
