<svg xmlns="http://www.w3.org/2000/svg" width="1160" height="684" viewBox="0 0 1160 684" version="1.1"><path d="M 40 342 L 40 644 578 644 L 1116 644 1116 342 L 1116 40 578 40 L 40 40 40 342 M 44 162 L 44 280 198 280 L 352 280 352 162 L 352 44 198 44 L 44 44 44 162 M 356 162 L 356 280 468 280 L 580 280 580 220 L 580 160 846 160 L 1112 160 1112 102 L 1112 44 734 44 L 356 44 356 162 M 504 122.500 L 504 140 507 140 L 510 140 510 133 L 510 126 515.851 126 C 526.629 126, 531 122.674, 531 114.473 C 531 111.798, 530.233 110.079, 528.077 107.923 C 525.215 105.061, 524.934 105, 514.577 105 L 504 105 504 122.500 M 682 122.500 L 682 140 685 140 L 688 140 688 132 L 688 124 696.500 124 L 705 124 705 132 L 705 140 708 140 L 711 140 711 122.500 L 711 105 708 105 L 705 105 705 112 L 705 119 696.500 119 L 688 119 688 112 L 688 105 685 105 L 682 105 682 122.500 M 786 109.853 L 786 114.706 781.146 114.240 C 775.511 113.699, 772.580 114.964, 770.631 118.780 C 767.139 125.614, 767.942 134.033, 772.524 138.615 C 775.353 141.444, 781.344 141.849, 784.777 139.443 C 786.023 138.571, 787 138.351, 787 138.943 C 787 139.524, 788.125 140, 789.500 140 L 792 140 792 122.500 L 792 105 789 105 C 786.079 105, 786 105.127, 786 109.853 M 797 122.500 L 797 140 799.500 140 L 802 140 802 122.500 L 802 105 799.500 105 L 797 105 797 122.500 M 510 115.639 L 510 121.278 516.037 120.730 C 522.767 120.120, 525 118.825, 525 115.533 C 525 111.798, 521.968 110, 515.671 110 L 510 110 510 115.639 M 541.376 114.089 C 537.676 115.158, 536.319 116.609, 535.848 120 C 535.557 122.088, 535.953 122.552, 538.250 122.816 C 540.228 123.044, 541 122.687, 541 121.545 C 541 119.037, 545.480 117.442, 548.571 118.850 C 553.116 120.921, 551.273 123.258, 544.067 124.562 C 536.850 125.867, 534 128.300, 534 133.156 C 534 139.659, 542.057 143.091, 548.952 139.525 C 551.467 138.224, 551.872 138.224, 552.371 139.525 C 552.698 140.376, 554.219 141, 555.969 141 C 558.535 141, 559 140.617, 559 138.500 C 559 136.944, 558.433 136, 557.500 136 C 556.272 136, 556 134.280, 556 126.523 C 556 117.780, 555.826 116.937, 553.750 115.635 C 550.658 113.697, 545.124 113.005, 541.376 114.089 M 569.750 114.572 C 568.157 115.436, 567 115.630, 567 115.032 C 567 114.464, 565.875 114, 564.500 114 L 562 114 562 127 L 562 140 564.500 140 C 566.926 140, 567 139.796, 567 133.065 C 567 124.332, 568.200 121.128, 572.010 119.690 C 574.343 118.810, 575 117.950, 575 115.781 C 575 112.652, 573.798 112.376, 569.750 114.572 M 584.643 114.028 C 580.669 115.219, 578 117.881, 578 120.655 C 578 123.830, 581.156 123.754, 584.409 120.500 C 587.244 117.665, 588.812 117.411, 591.471 119.355 C 594.476 121.553, 592.690 123.651, 587.195 124.380 C 580.264 125.299, 577 128.070, 577 133.034 C 577 140.009, 584.101 143.283, 591.199 139.580 C 593.521 138.368, 594.061 138.369, 595.071 139.586 C 595.717 140.364, 597.329 141, 598.654 141 C 601.663 141, 602.931 138.154, 600.662 136.495 C 599.355 135.539, 599 133.590, 599 127.362 C 599 118.086, 597.720 115.572, 592.221 114.044 C 588.025 112.879, 588.473 112.880, 584.643 114.028 M 614.500 113.735 C 613.400 113.999, 611.938 114.672, 611.250 115.230 C 610.382 115.935, 610 115.882, 610 115.056 C 610 114.349, 608.885 113.995, 607.250 114.184 L 604.500 114.500 604.220 127.250 L 603.940 140 606.970 140 L 610 140 610 131.723 C 610 122.011, 611.547 118.695, 615.847 119.193 L 618.500 119.500 618.785 129.750 L 619.070 140 622.035 140 L 625 140 625 131.434 C 625 121.378, 625.943 119, 629.928 119 C 633.599 119, 634 120.189, 634 131.082 L 634 140 637.128 140 L 640.257 140 639.802 128.951 C 639.410 119.442, 639.056 117.611, 637.259 115.815 C 634.676 113.232, 627.803 112.963, 625.173 115.343 C 623.657 116.716, 623.170 116.752, 621.944 115.587 C 620.133 113.865, 617.100 113.111, 614.500 113.735 M 649.655 113.994 C 643.626 115.867, 641.911 123.212, 646.635 126.927 C 648.084 128.067, 649.772 129.003, 650.385 129.006 C 650.998 129.009, 653.215 129.487, 655.311 130.069 C 658.414 130.931, 659.065 131.534, 658.811 133.314 C 658.271 137.105, 649.720 136.843, 648.499 132.998 C 647.725 130.557, 643 130.172, 643 132.550 C 643 134.956, 645.747 139.689, 647.545 140.379 C 648.435 140.720, 651.411 141, 654.159 141 C 658.346 141, 659.626 140.527, 662.077 138.077 C 667.653 132.501, 665.286 127.185, 656.077 124.602 C 649.306 122.702, 647.846 121.317, 650.538 119.348 C 653.156 117.434, 654.430 117.650, 657.938 120.601 C 663.123 124.964, 666.278 121.653, 661.750 116.601 C 659.217 113.776, 653.985 112.648, 649.655 113.994 M 722.655 113.994 C 719.254 115.051, 717.075 117.668, 717.032 120.750 C 717.007 122.492, 717.565 123, 719.500 123 C 721.071 123, 722 122.435, 722 121.479 C 722 119.026, 726.516 117.459, 729.571 118.850 C 733.777 120.767, 732.317 123.324, 726.490 124.249 C 719.856 125.302, 717.372 126.688, 715.945 130.134 C 714.546 133.510, 716.106 138.451, 719.071 140.038 C 721.614 141.399, 727.067 141.169, 729.936 139.580 C 731.990 138.442, 732.590 138.448, 733.758 139.615 C 734.520 140.377, 736.236 141, 737.571 141 C 739.495 141, 740 140.480, 740 138.500 C 740 137.125, 739.550 136, 739 136 C 738.438 136, 738 133.208, 738 129.625 C 738 120.873, 737.096 117.104, 734.611 115.506 C 731.714 113.642, 726.079 112.929, 722.655 113.994 M 753.500 113.724 C 752.400 113.994, 750.978 114.639, 750.339 115.156 C 749.603 115.753, 748.941 115.713, 748.530 115.049 C 748.174 114.472, 746.784 114, 745.441 114 L 743 114 743 127 L 743 140 746 140 L 749 140 749 131.155 C 749 121.132, 750.422 118.575, 755.662 119.175 L 758.500 119.500 758.785 129.750 L 759.070 140 762.035 140 L 765 140 765 130.047 C 765 124.573, 764.488 118.970, 763.862 117.597 C 762.900 115.486, 758.120 112.726, 756.101 113.116 C 755.770 113.180, 754.600 113.453, 753.500 113.724 M 814.035 114.285 C 804.760 117.537, 802.955 133.652, 811.217 139.439 C 813.734 141.202, 819.598 141.483, 823.434 140.025 C 826.098 139.012, 830.276 133.256, 829.389 131.821 C 828.356 130.149, 824.727 131.077, 822.821 133.500 C 820.279 136.732, 815.721 136.868, 813.557 133.777 C 810.567 129.509, 811.361 129, 821 129 L 830 129 829.985 125.750 C 829.947 117.227, 821.978 111.500, 814.035 114.285 M 842.250 114.493 C 840.462 115.269, 839 115.475, 839 114.952 C 839 114.428, 837.875 114, 836.500 114 L 834 114 834 127 L 834 140 837 140 L 840 140 840 131.057 C 840 122.949, 840.208 121.968, 842.223 120.557 C 843.445 119.701, 845.275 119, 846.289 119 C 847.700 119, 848.059 118.372, 847.816 116.327 C 847.426 113.028, 846.403 112.691, 842.250 114.493 M 150 134.500 L 150 152 152.500 152 C 154.958 152, 155 151.867, 155 144 L 155 136 164 136 L 173 136 173 144 C 173 151.867, 173.042 152, 175.500 152 L 178 152 178 134.500 L 178 117 175.500 117 C 173.071 117, 173 117.200, 173 124 L 173 131 164 131 L 155 131 155 124 C 155 117.200, 154.929 117, 152.500 117 L 150 117 150 134.500 M 236 122.383 C 236 124.926, 235.503 125.897, 234 126.290 C 232.900 126.577, 232 127.477, 232 128.290 C 232 129.102, 232.900 130.002, 234 130.290 C 235.821 130.766, 236 131.654, 236 140.206 C 236 150.461, 236.678 152, 241.200 152 C 243.333 152, 244 151.524, 244 150 C 244 148.900, 243.373 148, 242.607 148 C 240.585 148, 240 145.718, 240 137.825 C 240 131.654, 240.240 130.750, 242 130.290 C 243.107 130, 244 128.926, 244 127.883 C 244 126.667, 243.292 126, 242 126 C 240.381 126, 240 125.333, 240 122.500 C 240 119.667, 239.619 119, 238 119 C 236.394 119, 236 119.667, 236 122.383 M 775.872 120.654 C 775.081 121.607, 774.500 124.604, 774.500 127.734 C 774.500 131.952, 774.932 133.477, 776.441 134.581 C 779.279 136.656, 782.665 136.316, 784.443 133.777 C 786.653 130.623, 786.489 122.753, 784.171 120.655 C 781.824 118.531, 777.635 118.530, 775.872 120.654 M 813.655 120.829 C 812.745 121.835, 812 122.960, 812 123.329 C 812 123.698, 814.700 124, 818 124 C 824.336 124, 825.148 123.349, 822.171 120.655 C 819.756 118.469, 815.716 118.552, 813.655 120.829 M 186.962 128.750 C 181.413 133.721, 181.061 144.515, 186.278 149.732 C 189.489 152.944, 195.631 153.759, 199.916 151.543 C 203.905 149.481, 206 144.794, 206 137.932 C 206 133.429, 205.583 132.383, 202.600 129.400 C 199.722 126.522, 198.496 126, 194.616 126 C 191.026 126, 189.366 126.596, 186.962 128.750 M 212.455 128.455 C 207.419 133.490, 210.163 138.880, 218.819 140.957 C 225.550 142.571, 227.259 144.562, 224.107 147.115 C 220.941 149.678, 218.392 149.483, 215.353 146.444 C 213.947 145.038, 211.940 144.025, 210.893 144.194 C 209.051 144.490, 209.046 144.615, 210.744 148 C 212.966 152.430, 217.888 153.949, 224.041 152.106 C 227.113 151.186, 228.476 150.098, 229.444 147.796 C 231.802 142.188, 229.567 139.068, 221.607 136.854 C 216.146 135.336, 213.508 132.575, 216 130.987 C 218.598 129.331, 222.896 129.860, 224.232 132 C 224.919 133.100, 226.498 134, 227.741 134 C 230.405 134, 230.451 133.774, 228.537 130.072 C 226.784 126.681, 225.251 126, 219.373 126 C 215.967 126, 214.327 126.582, 212.455 128.455 M 545.699 128.966 C 541.197 129.838, 539.685 131.115, 540.164 133.644 C 540.690 136.417, 546.316 136.684, 548.941 134.059 C 550.903 132.097, 551.833 127.872, 550.250 128.115 C 549.837 128.178, 547.790 128.561, 545.699 128.966 M 588.682 129.075 C 583.697 129.900, 581.160 132.283, 582.958 134.450 C 585.744 137.806, 593.579 134.624, 592.847 130.434 C 592.548 128.717, 591.974 128.530, 588.682 129.075 M 727.072 129.088 C 721.743 130.133, 720.588 131.125, 721.468 133.899 C 722.907 138.434, 732 135.067, 732 130 C 732 128.900, 731.888 128.049, 731.750 128.110 C 731.612 128.170, 729.507 128.610, 727.072 129.088 M 190.102 131.898 C 183.812 138.188, 188.813 150.923, 196.435 148.025 C 199.693 146.786, 201 144.078, 201 138.566 C 201 131.078, 194.748 127.252, 190.102 131.898 M 584 222 L 584 280 848 280 L 1112 280 1112 222 L 1112 164 848 164 L 584 164 584 222 M 147 190.500 L 147 208 149.500 208 C 151.958 208, 152 207.867, 152 200 L 152 192 160.500 192 C 168.333 192, 169 191.843, 169 190 C 169 188.157, 168.333 188, 160.500 188 L 152 188 152 183 L 152 178 161.500 178 C 170.967 178, 171 177.991, 171 175.500 L 171 173 159 173 L 147 173 147 190.500 M 175 192.708 C 175 204.802, 175.970 207.395, 180.898 208.478 C 182.619 208.856, 185.253 208.503, 187.396 207.608 C 189.378 206.780, 191 206.529, 191 207.051 C 191 207.573, 191.900 208, 193 208 C 194.897 208, 195 207.333, 195 195 C 195 182.667, 194.897 182, 193 182 C 191.179 182, 191 182.667, 191 189.435 C 191 200.513, 189.290 203.954, 183.769 203.985 C 180.466 204.003, 180.100 202.820, 179.751 191 C 179.516 183.035, 179.358 182.480, 177.250 182.180 C 175.035 181.866, 175 182.031, 175 192.708 M 202 195 C 202 207.333, 202.103 208, 204 208 C 205.827 208, 206.001 207.328, 206.015 200.250 C 206.032 191.356, 207.364 187.948, 211.376 186.537 C 213.807 185.682, 214.478 185.872, 216.105 187.881 C 217.647 189.786, 218 191.875, 218 199.111 C 218 207.926, 218.021 208, 220.500 208 C 222.954 208, 223 207.856, 222.976 200.250 C 222.947 190.847, 221.700 184.985, 219.364 183.277 C 216.963 181.521, 210.911 181.674, 208.223 183.557 C 206.211 184.966, 206 184.966, 206 183.557 C 206 182.667, 205.143 182, 204 182 C 202.103 182, 202 182.667, 202 195 M 231.367 183.772 C 223.542 190.111, 225.670 206.194, 234.632 208.444 C 238.834 209.498, 244.812 207.265, 246.493 204.013 C 248.548 200.039, 248.391 199, 245.737 199 C 244.350 199, 243.092 199.870, 242.487 201.250 C 241.193 204.199, 236.049 204.818, 233.774 202.299 C 230.900 199.116, 231.029 190.971, 234 188 C 236.784 185.216, 240.585 185.437, 242.592 188.500 C 244.611 191.581, 248 191.866, 248 188.955 C 248 187.830, 246.895 185.805, 245.545 184.455 C 242.497 181.407, 234.748 181.034, 231.367 183.772 M 754 222.500 L 754 240 767.070 240 C 780.051 240, 780.137 239.985, 779.820 237.750 C 779.515 235.606, 779.018 235.487, 769.250 235.215 L 759 234.930 759 229.465 L 759 224 768.500 224 C 777.333 224, 778 223.860, 778 222 C 778 220.140, 777.333 220, 768.500 220 L 759 220 759 215 L 759 210 769 210 L 779 210 779 207.500 L 779 205 766.500 205 L 754 205 754 222.500 M 812.667 207.667 C 812.300 208.033, 812 209.608, 812 211.167 C 812 213.019, 811.480 214, 810.500 214 C 809.667 214, 809 214.889, 809 216 C 809 217.111, 809.667 218, 810.500 218 C 811.704 218, 812.020 219.628, 812.100 226.250 C 812.242 238.041, 812.775 239.433, 817.289 239.810 C 820.404 240.071, 821 239.809, 821 238.177 C 821 237.074, 820.135 236.007, 819 235.710 C 817.205 235.241, 817 234.346, 817 227 C 817 219.654, 817.205 218.759, 819 218.290 C 820.107 218, 821 216.926, 821 215.883 C 821 214.667, 820.292 214, 819 214 C 817.381 214, 817 213.333, 817 210.500 C 817 207.773, 816.595 207, 815.167 207 C 814.158 207, 813.033 207.300, 812.667 207.667 M 785 227 L 785 240 787.500 240 C 789.981 240, 790 239.933, 790 231 C 790 223.333, 790.296 221.704, 792 220 C 794.491 217.509, 797.189 217.446, 799.345 219.829 C 800.632 221.251, 801 223.698, 801 230.829 L 801 240 803.588 240 L 806.177 240 805.838 228.910 C 805.526 218.668, 805.319 217.673, 803.139 215.910 C 800.266 213.585, 794.290 213.408, 791.223 215.557 C 789.211 216.966, 789 216.966, 789 215.557 C 789 214.667, 788.143 214, 787 214 C 785.103 214, 785 214.667, 785 227 M 825 227 L 825 240 827.500 240 C 829.978 240, 830 239.923, 830 231.155 C 830 221.592, 831.243 219, 835.829 219 C 837.478 219, 838 218.399, 838 216.500 C 838 214.534, 837.492 214, 835.622 214 C 834.315 214, 832.685 214.675, 832 215.500 C 831.315 216.325, 830.360 217, 829.878 217 C 829.395 217, 829 216.325, 829 215.500 C 829 214.667, 828.111 214, 827 214 C 825.103 214, 825 214.667, 825 227 M 843.455 216.455 C 840.615 219.295, 840.290 221.790, 842.644 222.694 C 843.737 223.113, 844.938 222.433, 846.227 220.662 C 849.173 216.619, 856 217.204, 856 221.500 C 856 223.516, 855.274 223.914, 849.856 224.869 C 846.477 225.464, 842.877 226.707, 841.856 227.630 C 839.239 229.998, 839.378 236.128, 842.105 238.595 C 844.882 241.108, 852.048 241.172, 854.771 238.707 C 856.508 237.135, 856.826 237.104, 857.345 238.457 C 858.108 240.444, 864 240.577, 864 238.607 C 864 237.841, 863.325 236.955, 862.500 236.638 C 861.321 236.186, 861 234.145, 861 227.104 C 861 218.617, 860.861 218.036, 858.365 216.073 C 854.451 212.994, 846.717 213.192, 843.455 216.455 M 868 227 C 868 239.333, 868.103 240, 870 240 C 871.827 240, 872.001 239.328, 872.015 232.250 C 872.032 223.356, 873.364 219.948, 877.376 218.537 C 879.807 217.682, 880.478 217.872, 882.105 219.881 C 883.647 221.786, 884 223.875, 884 231.111 C 884 239.926, 884.021 240, 886.500 240 C 888.954 240, 889 239.856, 888.976 232.250 C 888.947 222.847, 887.700 216.985, 885.364 215.277 C 882.963 213.521, 876.911 213.674, 874.223 215.557 C 872.211 216.966, 872 216.966, 872 215.557 C 872 214.667, 871.143 214, 870 214 C 868.103 214, 868 214.667, 868 227 M 897.367 215.772 C 889.542 222.111, 891.670 238.194, 900.632 240.444 C 904.834 241.498, 910.812 239.265, 912.493 236.013 C 914.548 232.039, 914.391 231, 911.737 231 C 910.350 231, 909.092 231.870, 908.487 233.250 C 907.193 236.199, 902.049 236.818, 899.774 234.299 C 896.900 231.116, 897.029 222.971, 900 220 C 902.784 217.216, 906.585 217.437, 908.592 220.500 C 910.611 223.581, 914 223.866, 914 220.955 C 914 219.830, 912.895 217.805, 911.545 216.455 C 908.497 213.407, 900.748 213.034, 897.367 215.772 M 923.256 215.029 C 918.107 217.099, 915.302 227.405, 917.975 234.434 C 919.174 237.587, 924.530 240.991, 928.300 240.996 C 932.347 241.002, 936.732 238.419, 938.509 234.983 C 939.996 232.107, 939.972 232, 937.840 232 C 936.624 232, 934.611 232.956, 933.367 234.125 C 930.399 236.914, 926.118 236.864, 923.810 234.014 C 920.279 229.653, 921.233 229, 931.130 229 L 940.260 229 939.728 224.282 C 938.799 216.036, 931.271 211.807, 923.256 215.029 M 924.174 220.314 C 920.572 224.149, 921.357 225, 928.500 225 C 935.708 225, 936.794 223.750, 932.811 220.039 C 929.936 217.360, 926.858 217.458, 924.174 220.314 M 850 228.732 C 846.706 229.338, 845 230.823, 845 233.087 C 845 235.822, 848.279 237.225, 851.664 235.938 C 854.937 234.693, 855.964 233.342, 855.985 230.250 C 856 227.942, 855.285 227.760, 850 228.732 M 44 342 L 44 400 312 400 L 580 400 580 342 L 580 284 312 284 L 44 284 44 342 M 584 342 L 584 400 848 400 L 1112 400 1112 342 L 1112 284 848 284 L 584 284 584 342 M 55 342.500 L 55 360 57.500 360 C 59.958 360, 60 359.867, 60 352 L 60 344 69 344 L 78 344 78 352 C 78 359.867, 78.042 360, 80.500 360 L 83 360 83 342.500 L 83 325 80.500 325 C 78.071 325, 78 325.200, 78 332 L 78 339 69 339 L 60 339 60 332 C 60 325.200, 59.929 325, 57.500 325 L 55 325 55 342.500 M 168 342.500 L 168 360 170.500 360 C 172.958 360, 173 359.867, 173 352 L 173 344 181.500 344 C 189.333 344, 190 343.843, 190 342 C 190 340.157, 189.333 340, 181.500 340 L 173 340 173 335 L 173 330 182.500 330 C 191.967 330, 192 329.991, 192 327.500 L 192 325 180 325 L 168 325 168 342.500 M 287 327.500 C 287 329.333, 287.533 330, 289 330 C 290.467 330, 291 329.333, 291 327.500 C 291 325.667, 290.467 325, 289 325 C 287.533 325, 287 325.667, 287 327.500 M 385.975 325.750 C 385.962 326.163, 387.874 334.036, 390.225 343.247 C 394.433 359.732, 394.542 359.995, 397.208 359.997 C 400.118 360, 400.710 358.581, 405.648 339.749 C 406.622 336.035, 407.715 333.560, 408.076 334.249 C 408.437 334.937, 410.225 341.012, 412.049 347.750 C 415.280 359.681, 415.439 360, 418.145 360 C 420.516 360, 421.065 359.451, 421.891 356.250 C 424.412 346.487, 429.179 328.315, 429.630 326.750 C 430.029 325.365, 429.520 325, 427.191 325 C 424.297 325, 424.210 325.157, 422.129 334.250 C 420.964 339.337, 419.727 344.962, 419.381 346.750 C 419.034 348.538, 418.432 350, 418.044 350 C 417.655 350, 415.818 344.375, 413.960 337.500 C 410.678 325.350, 410.506 325, 407.834 325 C 405.280 325, 404.936 325.516, 402.990 332.250 C 401.838 336.238, 400.103 342.200, 399.135 345.500 L 397.375 351.500 394.623 339.500 C 393.109 332.900, 391.689 326.938, 391.467 326.250 C 391.039 324.927, 386.017 324.470, 385.975 325.750 M 720 342.500 L 720 360 733 360 L 746 360 746 357.500 L 746 355 735.448 355 L 724.895 355 725.198 349.750 L 725.500 344.500 734.750 344.212 C 743.114 343.953, 744 343.740, 744 342 C 744 340.260, 743.114 340.047, 734.750 339.788 L 725.500 339.500 725.195 334.750 L 724.890 330 735.445 330 L 746 330 746 327.500 L 746 325 733 325 L 720 325 720 342.500 M 805 327.500 C 805 329.500, 805.500 330, 807.500 330 C 809.500 330, 810 329.500, 810 327.500 C 810 325.500, 809.500 325, 807.500 325 C 805.500 325, 805 325.500, 805 327.500 M 883 342.409 L 883 360 885.456 360 C 887.812 360, 887.924 359.702, 888.206 352.750 L 888.500 345.500 896.154 345.210 C 902.853 344.956, 904.132 344.595, 906.404 342.323 C 909.940 338.787, 910.026 332.305, 906.588 328.306 C 904.272 325.610, 903.760 325.487, 893.588 325.159 L 883 324.818 883 342.409 M 968 342.500 C 968 359.333, 968.076 360, 970 360 C 971.924 360, 972 359.333, 972 342.500 C 972 325.667, 971.924 325, 970 325 C 968.076 325, 968 325.667, 968 342.500 M 141 330.383 C 141 332.926, 140.503 333.897, 139 334.290 C 137.900 334.577, 137 335.477, 137 336.290 C 137 337.102, 137.900 338.002, 139 338.290 C 140.821 338.766, 141 339.654, 141 348.206 C 141 358.461, 141.678 360, 146.200 360 C 148.333 360, 149 359.524, 149 358 C 149 356.900, 148.373 356, 147.607 356 C 145.585 356, 145 353.718, 145 345.825 C 145 339.654, 145.240 338.750, 147 338.290 C 148.107 338, 149 336.926, 149 335.883 C 149 334.667, 148.292 334, 147 334 C 145.381 334, 145 333.333, 145 330.500 C 145 327.667, 144.619 327, 143 327 C 141.394 327, 141 327.667, 141 330.383 M 274 330.430 C 274 332.937, 273.553 334, 272.500 334 C 271.667 334, 271 334.889, 271 336 C 271 337.111, 271.667 338, 272.500 338 C 273.731 338, 274 339.756, 274 347.800 C 274 358.704, 274.606 360, 279.700 360 C 282.333 360, 283 359.596, 283 358 C 283 356.667, 282.333 356, 281 356 C 279.148 356, 279 355.333, 279 347 C 279 338.667, 279.148 338, 281 338 C 283.591 338, 283.637 334.979, 281.056 334.304 C 279.747 333.962, 279.012 332.767, 278.806 330.648 C 278.574 328.260, 277.957 327.423, 276.250 327.180 C 274.277 326.900, 274 327.301, 274 330.430 M 888 335.500 L 888 341 893.777 341 C 900.435 341, 904 339.087, 904 335.515 C 904 331.432, 901.514 330, 894.429 330 L 888 330 888 335.500 M 91.962 336.750 C 86.413 341.721, 86.061 352.515, 91.278 357.732 C 94.489 360.944, 100.631 361.759, 104.916 359.543 C 108.905 357.481, 111 352.794, 111 345.932 C 111 341.429, 110.583 340.383, 107.600 337.400 C 104.722 334.522, 103.496 334, 99.616 334 C 96.026 334, 94.366 334.596, 91.962 336.750 M 117.455 336.455 C 112.419 341.490, 115.163 346.880, 123.819 348.957 C 130.550 350.571, 132.259 352.562, 129.107 355.115 C 125.941 357.678, 123.392 357.483, 120.353 354.444 C 118.947 353.038, 116.940 352.025, 115.893 352.194 C 114.051 352.490, 114.046 352.615, 115.744 356 C 117.966 360.430, 122.888 361.949, 129.041 360.106 C 132.113 359.186, 133.476 358.098, 134.444 355.796 C 136.802 350.188, 134.567 347.068, 126.607 344.854 C 121.146 343.336, 118.508 340.575, 121 338.987 C 123.598 337.331, 127.896 337.860, 129.232 340 C 129.919 341.100, 131.498 342, 132.741 342 C 135.405 342, 135.451 341.774, 133.537 338.072 C 131.784 334.681, 130.251 334, 124.373 334 C 120.967 334, 119.327 334.582, 117.455 336.455 M 196 344.708 C 196 356.802, 196.970 359.395, 201.898 360.478 C 203.619 360.856, 206.253 360.503, 208.396 359.608 C 210.378 358.780, 212 358.529, 212 359.051 C 212 359.573, 212.900 360, 214 360 C 215.897 360, 216 359.333, 216 347 C 216 334.667, 215.897 334, 214 334 C 212.179 334, 212 334.667, 212 341.435 C 212 352.513, 210.290 355.954, 204.769 355.985 C 201.466 356.003, 201.100 354.820, 200.751 343 C 200.516 335.035, 200.358 334.480, 198.250 334.180 C 196.035 333.866, 196 334.031, 196 344.708 M 223 347 C 223 359.333, 223.103 360, 225 360 C 226.827 360, 227.001 359.328, 227.015 352.250 C 227.032 343.356, 228.364 339.948, 232.376 338.537 C 234.807 337.682, 235.478 337.872, 237.105 339.881 C 238.647 341.786, 239 343.875, 239 351.111 C 239 359.926, 239.021 360, 241.500 360 C 243.954 360, 244 359.856, 243.976 352.250 C 243.947 342.847, 242.700 336.985, 240.364 335.277 C 237.963 333.521, 231.911 333.674, 229.223 335.557 C 227.211 336.966, 227 336.966, 227 335.557 C 227 334.667, 226.143 334, 225 334 C 223.103 334, 223 334.667, 223 347 M 252.367 335.772 C 244.542 342.111, 246.670 358.194, 255.632 360.444 C 259.834 361.498, 265.812 359.265, 267.493 356.013 C 269.548 352.039, 269.391 351, 266.737 351 C 265.350 351, 264.092 351.870, 263.487 353.250 C 262.193 356.199, 257.049 356.818, 254.774 354.299 C 251.900 351.116, 252.029 342.971, 255 340 C 257.784 337.216, 261.585 337.437, 263.592 340.500 C 265.611 343.581, 269 343.866, 269 340.955 C 269 339.830, 267.895 337.805, 266.545 336.455 C 263.497 333.407, 255.748 333.034, 252.367 335.772 M 287 347 C 287 359.333, 287.103 360, 289 360 C 290.897 360, 291 359.333, 291 347 C 291 334.667, 290.897 334, 289 334 C 287.103 334, 287 334.667, 287 347 M 299.962 336.750 C 294.413 341.721, 294.061 352.515, 299.278 357.732 C 302.489 360.944, 308.631 361.759, 312.916 359.543 C 316.905 357.481, 319 352.794, 319 345.932 C 319 341.429, 318.583 340.383, 315.600 337.400 C 312.722 334.522, 311.496 334, 307.616 334 C 304.026 334, 302.366 334.596, 299.962 336.750 M 324 347 L 324 360 326.500 360 C 328.981 360, 329 359.933, 329 351 C 329 343.333, 329.296 341.704, 331 340 C 333.491 337.509, 336.189 337.446, 338.345 339.829 C 339.632 341.251, 340 343.698, 340 350.829 L 340 360 342.588 360 L 345.177 360 344.838 348.910 C 344.526 338.668, 344.319 337.673, 342.139 335.910 C 339.266 333.585, 333.290 333.408, 330.223 335.557 C 328.211 336.966, 328 336.966, 328 335.557 C 328 334.667, 327.143 334, 326 334 C 324.103 334, 324 334.667, 324 347 M 352.635 336.073 C 350.738 337.565, 350 339.071, 350 341.450 C 350 345.527, 351.374 346.714, 358.723 348.985 C 364.940 350.906, 366.638 353.329, 363.418 355.684 C 360.719 357.657, 358.193 357.283, 355.409 354.500 C 352.126 351.217, 348.581 351.066, 349.551 354.250 C 350.625 357.773, 352.988 359.907, 356.559 360.577 C 364.011 361.975, 370 358.302, 370 352.334 C 370 348.447, 367.865 346.743, 360.109 344.440 C 355.660 343.118, 354.923 342.557, 355.188 340.693 C 355.632 337.575, 361.230 337.078, 363.680 339.940 C 365.935 342.573, 369 342.650, 369 340.073 C 369 336.994, 364.316 334, 359.500 334 C 356.735 334, 354.357 334.718, 352.635 336.073 M 432.667 334.667 C 432.300 335.033, 432 340.883, 432 347.667 L 432 360 434.500 360 C 436.943 360, 437 359.830, 437 352.547 C 437 343.549, 438.361 340.078, 442.189 339.312 C 444.323 338.885, 445 338.178, 445 336.375 C 445 333.560, 442.565 333.215, 439.223 335.557 C 437.211 336.966, 437 336.966, 437 335.557 C 437 334.013, 433.947 333.386, 432.667 334.667 M 452.500 335.195 C 449.870 336.686, 449.034 338.019, 449.015 340.750 C 449.005 342.238, 449.597 343, 450.763 343 C 451.732 343, 452.970 341.988, 453.513 340.750 C 454.293 338.971, 455.315 338.500, 458.391 338.500 C 460.986 338.500, 462.644 339.074, 463.369 340.222 C 464.851 342.572, 463.315 343.935, 458.414 344.619 C 452.080 345.504, 449.249 346.985, 447.964 350.086 C 446.313 354.073, 448.167 358.412, 452.242 360.100 C 454.825 361.170, 456.037 361.111, 459.875 359.731 C 462.385 358.829, 464.677 358.440, 464.969 358.868 C 465.909 360.245, 468.642 360.839, 470.044 359.973 C 471.121 359.307, 471.165 358.643, 470.254 356.815 C 469.620 355.542, 468.960 350.743, 468.789 346.152 C 468.514 338.800, 468.196 337.577, 466.127 335.902 C 463.458 333.741, 455.768 333.342, 452.500 335.195 M 475 352 C 475 369.333, 475.074 370, 477 370 C 478.762 370, 479 369.333, 479 364.393 C 479 359.462, 479.211 358.868, 480.750 359.463 C 487.185 361.952, 491.988 360.709, 494.996 355.775 C 498.750 349.618, 497.062 337.709, 492.055 335.030 C 489.220 333.512, 483.763 333.777, 481.223 335.557 C 479.211 336.966, 479 336.966, 479 335.557 C 479 334.667, 478.143 334, 477 334 C 475.074 334, 475 334.667, 475 352 M 502 352 C 502 369.333, 502.074 370, 504 370 C 505.776 370, 506 369.333, 506 364.047 L 506 358.093 508.874 359.743 C 511.336 361.155, 512.341 361.214, 515.878 360.155 C 520.639 358.728, 522.955 355.757, 523.713 350.101 C 524.959 340.815, 520.884 334, 514.086 334 C 512.084 334, 509.445 334.701, 508.223 335.557 C 506.211 336.966, 506 336.966, 506 335.557 C 506 334.667, 505.143 334, 504 334 C 502.074 334, 502 334.667, 502 352 M 531.479 337.321 C 525.764 343.036, 525.803 352.648, 531.564 358.060 C 533.603 359.975, 535.237 360.500, 539.163 360.500 C 543.548 360.500, 544.524 360.098, 547.082 357.234 C 548.687 355.438, 550 353.526, 550 352.984 C 550 351.391, 545.268 351.859, 544.633 353.515 C 543.778 355.741, 539.432 357.115, 536.623 356.047 C 535.315 355.550, 533.769 353.777, 533.188 352.108 L 532.130 349.073 541.315 348.787 L 550.500 348.500 550.286 345.500 C 549.887 339.895, 548.951 337.941, 545.723 335.973 C 540.628 332.866, 535.443 333.357, 531.479 337.321 M 555.667 334.667 C 555.300 335.033, 555 340.883, 555 347.667 L 555 360 557.500 360 C 559.965 360, 560 359.885, 560 351.723 C 560 342.407, 561.488 339, 565.557 339 C 567.496 339, 568 338.485, 568 336.500 C 568 334.534, 567.492 334, 565.622 334 C 564.315 334, 562.661 334.703, 561.948 335.563 C 560.771 336.981, 560.569 336.981, 559.775 335.563 C 558.871 333.946, 556.832 333.501, 555.667 334.667 M 751.667 334.667 C 751.300 335.033, 751 340.883, 751 347.667 L 751 360 753.500 360 C 755.972 360, 756 359.903, 756 351.455 C 756 343.715, 756.231 342.678, 758.455 340.455 C 761.254 337.655, 762.820 337.417, 765.507 339.382 C 767.074 340.527, 767.469 342.408, 767.818 350.382 C 768.194 358.981, 768.438 360, 770.119 360 C 771.846 360, 772 359.101, 772 349 C 772 339.333, 771.758 337.758, 770 336 C 767.557 333.557, 761.408 333.325, 758.223 335.557 C 756.211 336.966, 756 336.966, 756 335.557 C 756 334.013, 752.947 333.386, 751.667 334.667 M 782.420 335.101 C 778.330 337.171, 776.414 342.758, 776.855 351.327 C 777.073 355.583, 781.980 360, 786.489 360 C 788.492 360, 791.002 359.534, 792.066 358.965 C 793.735 358.072, 794 358.267, 794 360.393 C 794 365.808, 787.178 368.213, 782.832 364.329 C 781.915 363.510, 780.238 362.988, 779.106 363.170 C 777.259 363.466, 777.176 363.758, 778.295 366 C 780.130 369.673, 786.415 371.466, 791.562 369.786 C 797.792 367.752, 798.997 364.263, 798.998 348.251 L 799 335.001 795.750 335.029 C 793.962 335.045, 790.700 334.830, 788.500 334.552 C 786.300 334.275, 783.564 334.522, 782.420 335.101 M 805 346.930 L 805 360 807.530 360 L 810.060 360 809.780 347.250 C 809.508 334.887, 809.432 334.490, 807.250 334.180 C 805.015 333.863, 805 333.949, 805 346.930 M 816 347 C 816 359.333, 816.103 360, 818 360 C 819.827 360, 820.001 359.328, 820.015 352.250 C 820.032 343.356, 821.364 339.948, 825.376 338.537 C 827.807 337.682, 828.478 337.872, 830.105 339.881 C 831.647 341.786, 832 343.875, 832 351.111 C 832 359.926, 832.021 360, 834.500 360 C 836.954 360, 837 359.856, 836.976 352.250 C 836.947 342.847, 835.700 336.985, 833.364 335.277 C 830.963 333.521, 824.911 333.674, 822.223 335.557 C 820.211 336.966, 820 336.966, 820 335.557 C 820 334.667, 819.143 334, 818 334 C 816.103 334, 816 334.667, 816 347 M 847.256 335.029 C 842.107 337.099, 839.302 347.405, 841.975 354.434 C 843.174 357.587, 848.530 360.991, 852.300 360.996 C 856.347 361.002, 860.732 358.419, 862.509 354.983 C 863.996 352.107, 863.972 352, 861.840 352 C 860.624 352, 858.611 352.956, 857.367 354.125 C 854.399 356.914, 850.118 356.864, 847.810 354.014 C 844.279 349.653, 845.233 349, 855.130 349 L 864.260 349 863.728 344.282 C 862.799 336.036, 855.271 331.807, 847.256 335.029 M 916.822 336.868 C 913.963 339.423, 913.569 340.434, 913.218 346.118 C 912.882 351.571, 913.170 353.009, 915.196 356 C 917.975 360.102, 923.071 361.843, 928.089 360.404 C 936.381 358.025, 939.345 343.498, 932.861 337.015 C 930.327 334.481, 929.063 334, 924.939 334 C 920.949 334, 919.431 334.536, 916.822 336.868 M 942.955 337.048 C 939.126 341.147, 938.166 347.528, 940.471 353.563 C 943.092 360.427, 949.042 362.681, 956.411 359.602 C 960.784 357.774, 963.506 351.181, 962.730 344.294 C 961.969 337.545, 957.890 334, 950.885 334 C 946.509 334, 945.406 334.424, 942.955 337.048 M 95.102 339.898 C 88.812 346.188, 93.813 358.923, 101.435 356.025 C 104.693 354.786, 106 352.078, 106 346.566 C 106 339.078, 99.748 335.252, 95.102 339.898 M 303.102 339.898 C 296.812 346.188, 301.813 358.923, 309.435 356.025 C 312.693 354.786, 314 352.078, 314 346.566 C 314 339.078, 307.748 335.252, 303.102 339.898 M 482.137 339.863 C 479.410 342.590, 478.641 348.206, 480.414 352.447 C 481.713 355.557, 482.334 356, 485.392 356 C 489.940 356, 492 353.125, 492 346.777 C 492 339.221, 486.580 335.420, 482.137 339.863 M 508.405 340.105 C 506.095 342.658, 505.753 351.793, 507.872 354.346 C 509.927 356.822, 515.545 356.488, 517.443 353.777 C 519.747 350.488, 519.490 342.490, 517 340 C 514.409 337.409, 510.805 337.453, 508.405 340.105 M 535 340 C 531.314 343.686, 532.365 345, 539 345 C 544.275 345, 545 344.765, 545 343.057 C 545 340.868, 541.471 338, 538.777 338 C 537.800 338, 536.100 338.900, 535 340 M 784.825 339.038 C 780.932 341.310, 780.194 351.051, 783.653 354.510 C 785.914 356.771, 790.621 356.379, 792.443 353.777 C 794.038 351.501, 794.557 343.380, 793.235 341.400 C 792.413 340.169, 788.573 337.984, 787.316 338.030 C 786.867 338.047, 785.746 338.501, 784.825 339.038 M 848.174 340.314 C 844.572 344.149, 845.357 345, 852.500 345 C 859.708 345, 860.794 343.750, 856.811 340.039 C 853.936 337.360, 850.858 337.458, 848.174 340.314 M 920.073 340.635 C 916.216 345.537, 918.105 355.490, 923 356.062 C 928.501 356.704, 931.352 353.351, 931.247 346.363 C 931.126 338.372, 924.517 334.984, 920.073 340.635 M 946.405 340.105 C 943.862 342.915, 943.733 352.162, 946.202 354.631 C 948.300 356.729, 953.578 356.851, 955.581 354.847 C 957.382 353.047, 958.475 347.030, 957.621 343.624 C 956.212 338.012, 950.049 336.078, 946.405 340.105 M 457.121 349.002 C 452.171 350.171, 450.826 352.684, 453.644 355.501 C 456.742 358.599, 464 354.666, 464 349.889 C 464 347.850, 462.709 347.683, 457.121 349.002 M 44 462 L 44 520 538 520 L 1032 520 1032 462 L 1032 404 538 404 L 44 404 44 462 M 1036 462 L 1036 520 1054 520 L 1072 520 1072 462 L 1072 404 1054 404 L 1036 404 1036 462 M 1076 462 L 1076 520 1094 520 L 1112 520 1112 462 L 1112 404 1094 404 L 1076 404 1076 462 M 365 462.500 L 365 480 378 480 L 391 480 391 477.500 L 391 475 380.500 475 L 370 475 370 469.500 L 370 464 379.500 464 C 388.333 464, 389 463.860, 389 462 C 389 460.140, 388.333 460, 379.500 460 L 370 460 370 455 L 370 450 380.500 450 L 391 450 391 447.500 L 391 445 378 445 L 365 445 365 462.500 M 449 447.500 C 449 449.500, 449.500 450, 451.500 450 C 453.500 450, 454 449.500, 454 447.500 C 454 445.500, 453.500 445, 451.500 445 C 449.500 445, 449 445.500, 449 447.500 M 528.667 445.667 C 528.300 446.033, 528 453.908, 528 463.167 L 528 480 531 480 L 534 480 534 462.500 L 534 445 531.667 445 C 530.383 445, 529.033 445.300, 528.667 445.667 M 625.200 446.200 C 624.540 446.860, 624 448.885, 624 450.700 C 624 454.145, 623.530 454.404, 617.920 454.048 C 616.501 453.959, 614.759 454.586, 614.048 455.442 C 612.410 457.416, 611 457.442, 611 455.500 C 611 454.667, 610.111 454, 609 454 C 607.103 454, 607 454.667, 607 467 L 607 480 609.500 480 C 611.978 480, 612 479.923, 612 471.155 C 612 460.975, 612.807 459.659, 619.750 458.521 L 624 457.824 624 468.912 L 624 480 626.500 480 L 629 480 629 469 C 629 458.667, 629.121 458, 631 458 C 632.163 458, 633 457.333, 633 456.406 C 633 455.530, 632.100 454.577, 631 454.290 C 629.706 453.951, 629 452.926, 629 451.383 C 629 449.667, 629.559 449, 631 449 C 632.333 449, 633 448.333, 633 447 C 633 445.404, 632.333 445, 629.700 445 C 627.885 445, 625.860 445.540, 625.200 446.200 M 568 450.383 C 568 452.926, 567.503 453.897, 566 454.290 C 564.900 454.577, 564 455.477, 564 456.290 C 564 457.102, 564.900 458.002, 566 458.290 C 567.821 458.766, 568 459.654, 568 468.206 C 568 478.461, 568.678 480, 573.200 480 C 575.333 480, 576 479.524, 576 478 C 576 476.900, 575.373 476, 574.607 476 C 572.585 476, 572 473.718, 572 465.825 C 572 459.654, 572.240 458.750, 574 458.290 C 575.107 458, 576 456.926, 576 455.883 C 576 454.667, 575.292 454, 574 454 C 572.381 454, 572 453.333, 572 450.500 C 572 447.667, 571.619 447, 570 447 C 568.394 447, 568 447.667, 568 450.383 M 396 467 L 396 480 398.500 480 C 400.978 480, 401 479.922, 401 471.174 C 401 463.040, 401.197 462.164, 403.515 459.986 C 405.611 458.017, 406.484 457.784, 408.765 458.584 C 411.477 459.536, 411.502 459.631, 411.785 469.772 C 412.067 479.899, 412.094 480, 414.535 480 C 416.996 480, 417 479.985, 417 469.635 C 417 460.663, 416.721 458.916, 414.927 456.635 C 412.662 453.755, 407.632 453.056, 403.827 455.093 C 402.350 455.883, 401.483 455.883, 400.693 455.093 C 400.092 454.492, 398.790 454, 397.800 454 C 396.159 454, 396 455.148, 396 467 M 426.942 455.427 C 419.613 459.540, 419.376 475.572, 426.595 478.861 C 429.710 480.281, 434.519 480.328, 437.066 478.965 C 438.667 478.108, 439 478.261, 439 479.854 C 439 485.097, 432.039 488.155, 428.138 484.625 C 426.305 482.966, 422 482.372, 422 483.777 C 422 485.818, 425.406 489.018, 428.480 489.867 C 432.391 490.947, 438.569 489.860, 440.714 487.714 C 443.006 485.423, 443.951 479.343, 443.976 466.726 L 444 454.952 440.250 455.017 C 438.188 455.053, 434.925 454.836, 433 454.537 C 430.859 454.203, 428.507 454.549, 426.942 455.427 M 449.667 454.667 C 449.300 455.033, 449 460.883, 449 467.667 L 449 480 451.500 480 L 454 480 454 467 C 454 455.061, 453.850 454, 452.167 454 C 451.158 454, 450.033 454.300, 449.667 454.667 M 460 467 L 460 480 462.500 480 C 464.978 480, 465 479.922, 465 471.174 C 465 463.040, 465.197 462.164, 467.515 459.986 C 469.611 458.017, 470.484 457.784, 472.765 458.584 C 475.477 459.536, 475.502 459.631, 475.785 469.772 C 476.067 479.899, 476.094 480, 478.535 480 C 480.996 480, 481 479.985, 481 469.635 C 481 460.663, 480.721 458.916, 478.927 456.635 C 476.662 453.755, 471.632 453.056, 467.827 455.093 C 466.350 455.883, 465.483 455.883, 464.693 455.093 C 464.092 454.492, 462.790 454, 461.800 454 C 460.159 454, 460 455.148, 460 467 M 489.962 456.750 C 482.215 463.690, 485.155 478.813, 494.595 480.584 C 500.528 481.697, 508 477.489, 508 473.035 C 508 471.406, 503.280 471.828, 502.633 473.515 C 501.722 475.889, 497.253 477.202, 494.685 475.850 C 492.035 474.456, 491.036 473.066, 491.015 470.750 C 491.002 469.212, 492.089 469, 500 469 L 509 469 508.998 466.250 C 508.996 462.342, 505.937 456.746, 503 455.279 C 498.638 453.099, 493.374 453.693, 489.962 456.750 M 540 467 L 540 480 542.500 480 C 544.978 480, 545 479.922, 545 471.174 C 545 463.040, 545.197 462.164, 547.515 459.986 C 549.611 458.017, 550.484 457.784, 552.765 458.584 C 555.477 459.536, 555.502 459.631, 555.785 469.772 C 556.067 479.899, 556.094 480, 558.535 480 C 560.996 480, 561 479.985, 561 469.635 C 561 460.663, 560.721 458.916, 558.927 456.635 C 556.662 453.755, 551.632 453.056, 547.827 455.093 C 546.350 455.883, 545.483 455.883, 544.693 455.093 C 544.092 454.492, 542.790 454, 541.800 454 C 540.159 454, 540 455.148, 540 467 M 585.256 455.029 C 580.107 457.099, 577.302 467.405, 579.975 474.434 C 581.174 477.587, 586.530 480.991, 590.300 480.996 C 594.347 481.002, 598.732 478.419, 600.509 474.983 C 601.996 472.107, 601.972 472, 599.840 472 C 598.624 472, 596.611 472.956, 595.367 474.125 C 592.399 476.914, 588.118 476.864, 585.810 474.014 C 582.279 469.653, 583.233 469, 593.130 469 L 602.260 469 601.728 464.282 C 600.799 456.036, 593.271 451.807, 585.256 455.029 M 640.235 454.982 C 637.890 455.981, 635.558 460.477, 636.552 462.084 C 637.579 463.746, 639.744 463.040, 641.408 460.500 C 643.334 457.560, 647.965 457.108, 650.473 459.616 C 653.489 462.631, 652.021 463.585, 641.225 465.622 C 635.772 466.650, 633.275 473.092, 636.529 477.738 C 638.643 480.756, 644.055 481.618, 648.129 479.585 C 650.322 478.492, 651.697 478.297, 652.385 478.985 C 654.021 480.621, 659 480.233, 659 478.469 C 659 477.626, 658.325 476.678, 657.500 476.362 C 656.316 475.907, 656 473.833, 656 466.515 C 656 459.335, 655.648 456.953, 654.439 455.950 C 652.482 454.325, 643.254 453.697, 640.235 454.982 M 664.955 457.048 C 658.938 463.490, 660.521 476.649, 667.674 479.637 C 673.877 482.229, 680.612 479.318, 682.452 473.250 C 683.028 471.351, 682.759 471, 680.728 471 C 679.131 471, 677.938 471.841, 677.182 473.500 C 676.283 475.473, 675.306 476, 672.547 476 C 669.634 476, 668.779 475.473, 667.416 472.837 C 664.308 466.828, 667.383 458, 672.584 458 C 674.874 458, 678 460.350, 678 462.071 C 678 462.582, 679.125 463, 680.500 463 C 683.377 463, 683.582 462.026, 681.537 458.072 C 679.780 454.675, 678.253 454, 672.319 454 C 668.574 454, 667.316 454.521, 664.955 457.048 M 689.962 456.750 C 682.215 463.690, 685.155 478.813, 694.595 480.584 C 700.528 481.697, 708 477.489, 708 473.035 C 708 471.406, 703.280 471.828, 702.633 473.515 C 701.722 475.889, 697.253 477.202, 694.685 475.850 C 692.035 474.456, 691.036 473.066, 691.015 470.750 C 691.002 469.212, 692.089 469, 700 469 L 709 469 708.998 466.250 C 708.996 462.342, 705.937 456.746, 703 455.279 C 698.638 453.099, 693.374 453.693, 689.962 456.750 M 429.012 459.789 C 424.689 463.290, 425.662 474.926, 430.354 475.830 C 435.651 476.850, 439 473.200, 439 466.407 C 439 464.026, 438.216 462.125, 436.545 460.455 C 433.625 457.534, 431.977 457.388, 429.012 459.789 M 493.189 460.039 C 489.206 463.750, 490.292 465, 497.500 465 C 504.653 465, 505.330 464.239, 501.545 460.455 C 498.557 457.466, 496.083 457.343, 493.189 460.039 M 586.174 460.314 C 582.572 464.149, 583.357 465, 590.500 465 C 597.708 465, 598.794 463.750, 594.811 460.039 C 591.936 457.360, 588.858 457.458, 586.174 460.314 M 693.189 460.039 C 689.206 463.750, 690.292 465, 697.500 465 C 704.653 465, 705.330 464.239, 701.545 460.455 C 698.557 457.466, 696.083 457.343, 693.189 460.039 M 645.413 468.943 C 643.715 469.349, 641.802 470.004, 641.163 470.399 C 639.287 471.558, 639.826 474.837, 642.091 476.049 C 646.040 478.162, 652 473.884, 652 468.935 C 652 467.871, 649.887 467.873, 645.413 468.943 M 44 582 L 44 640 312 640 L 580 640 580 582 L 580 524 312 524 L 44 524 44 582 M 584 582 L 584 640 848 640 L 1112 640 1112 582 L 1112 524 848 524 L 584 524 584 582 M 797.500 565.412 C 791.043 568.282, 788 573.835, 788 582.749 C 788 594.646, 795.215 601.810, 806.140 600.761 C 811.645 600.232, 815.373 597.971, 818.632 593.185 C 822.629 587.316, 822.578 576.583, 818.524 570.396 C 815.014 565.040, 804.138 562.461, 797.500 565.412 M 243.975 565.750 C 243.962 566.163, 245.874 574.036, 248.225 583.247 C 252.433 599.732, 252.542 599.995, 255.208 599.997 C 258.118 600, 258.710 598.581, 263.648 579.749 C 264.622 576.035, 265.715 573.560, 266.076 574.249 C 266.437 574.937, 268.225 581.013, 270.049 587.750 C 273.280 599.681, 273.439 600, 276.145 600 C 278.516 600, 279.065 599.451, 279.891 596.250 C 282.412 586.487, 287.179 568.315, 287.630 566.750 C 288.029 565.365, 287.520 565, 285.191 565 C 282.297 565, 282.210 565.157, 280.129 574.250 C 278.964 579.337, 277.727 584.962, 277.381 586.750 C 277.034 588.538, 276.432 590, 276.044 590 C 275.655 590, 273.818 584.375, 271.960 577.500 C 268.678 565.350, 268.506 565, 265.834 565 C 263.280 565, 262.936 565.516, 260.990 572.250 C 259.838 576.237, 258.103 582.200, 257.135 585.500 L 255.375 591.500 252.623 579.500 C 251.109 572.900, 249.689 566.938, 249.467 566.250 C 249.039 564.927, 244.017 564.470, 243.975 565.750 M 839 582.500 L 839 600 841.500 600 C 843.972 600, 844 599.903, 844 591.455 C 844 583.715, 844.231 582.678, 846.455 580.455 C 849.154 577.755, 852.163 577.286, 853.837 579.304 C 854.433 580.021, 855.050 584.859, 855.210 590.054 C 855.484 598.987, 855.622 599.517, 857.750 599.820 C 859.967 600.134, 860 599.977, 860 589.070 C 860 579.333, 859.759 577.759, 858 576 C 855.557 573.557, 849.408 573.325, 846.223 575.557 L 844 577.113 844 571.057 C 844 565.263, 843.891 565, 841.500 565 L 839 565 839 582.500 M 827 570.430 C 827 572.937, 826.553 574, 825.500 574 C 824.667 574, 824 574.889, 824 576 C 824 577.111, 824.667 578, 825.500 578 C 826.731 578, 827 579.756, 827 587.800 C 827 598.704, 827.606 600, 832.700 600 C 835.333 600, 836 599.596, 836 598 C 836 596.667, 835.333 596, 834 596 C 832.148 596, 832 595.333, 832 587 C 832 578.667, 832.148 578, 834 578 C 836.591 578, 836.637 574.979, 834.056 574.304 C 832.747 573.962, 832.012 572.767, 831.806 570.648 C 831.574 568.260, 830.957 567.423, 829.250 567.180 C 827.277 566.900, 827 567.301, 827 570.430 M 798.881 570.503 C 791.615 574.452, 791.133 589.478, 798.117 594.369 C 801.069 596.437, 807.877 596.475, 810.783 594.439 C 814.062 592.143, 816 587.708, 816 582.500 C 816 571.746, 807.524 565.806, 798.881 570.503 M 293.500 575.195 C 290.870 576.686, 290.034 578.019, 290.015 580.750 C 290.005 582.238, 290.597 583, 291.763 583 C 292.732 583, 293.970 581.987, 294.513 580.750 C 295.293 578.971, 296.315 578.500, 299.391 578.500 C 301.986 578.500, 303.644 579.074, 304.369 580.222 C 305.851 582.572, 304.315 583.935, 299.414 584.619 C 293.080 585.504, 290.249 586.985, 288.964 590.086 C 287.313 594.073, 289.167 598.412, 293.242 600.100 C 295.825 601.170, 297.037 601.111, 300.875 599.731 C 303.385 598.829, 305.677 598.440, 305.969 598.868 C 306.909 600.245, 309.642 600.839, 311.044 599.973 C 312.121 599.307, 312.165 598.643, 311.254 596.815 C 310.620 595.542, 309.960 590.743, 309.789 586.152 C 309.514 578.800, 309.196 577.577, 307.127 575.902 C 304.458 573.741, 296.768 573.342, 293.500 575.195 M 317.455 576.455 C 312.419 581.490, 315.163 586.880, 323.819 588.957 C 330.550 590.571, 332.259 592.562, 329.107 595.115 C 325.941 597.678, 323.392 597.483, 320.353 594.444 C 318.947 593.038, 316.940 592.025, 315.893 592.194 C 314.051 592.490, 314.046 592.615, 315.744 596 C 317.966 600.430, 322.888 601.949, 329.041 600.106 C 332.113 599.186, 333.476 598.098, 334.444 595.796 C 336.802 590.188, 334.567 587.068, 326.607 584.854 C 321.146 583.336, 318.508 580.575, 321 578.987 C 323.598 577.331, 327.896 577.860, 329.232 580 C 329.919 581.100, 331.498 582, 332.741 582 C 335.405 582, 335.451 581.774, 333.537 578.072 C 331.784 574.681, 330.251 574, 324.373 574 C 320.967 574, 319.327 574.582, 317.455 576.455 M 340 587 L 340 600 342.500 600 C 344.981 600, 345 599.933, 345 591 C 345 583.333, 345.296 581.704, 347 580 C 349.190 577.810, 350.726 577.541, 352.962 578.956 C 354.038 579.636, 354.531 582.539, 354.829 589.940 C 355.192 598.983, 355.423 600, 357.116 600 C 358.792 600, 359 599.180, 359 592.565 C 359 583.729, 360.088 580.373, 363.450 578.841 C 367.962 576.785, 369 578.896, 369 590.122 C 369 599.992, 369.002 600, 371.500 600 L 374 600 374 589.934 C 374 580.366, 373.122 576.449, 370.600 574.765 C 368.751 573.531, 362.563 573.917, 360.446 575.400 C 358.733 576.600, 358.174 576.600, 356.532 575.400 C 354.295 573.764, 349.669 573.572, 346.995 575.003 C 345.743 575.673, 344.916 575.673, 344.502 575.003 C 344.161 574.451, 343.009 574, 341.941 574 C 340.119 574, 340 574.798, 340 587 M 871.256 575.029 C 866.107 577.099, 863.302 587.405, 865.975 594.434 C 867.174 597.587, 872.530 600.991, 876.300 600.996 C 880.347 601.002, 884.732 598.419, 886.509 594.983 C 887.996 592.107, 887.972 592, 885.840 592 C 884.624 592, 882.611 592.956, 881.367 594.125 C 878.399 596.914, 874.118 596.864, 871.810 594.014 C 868.279 589.653, 869.233 589, 879.130 589 L 888.260 589 887.728 584.282 C 886.799 576.036, 879.271 571.807, 871.256 575.029 M 893 587 L 893 600 895.500 600 C 897.978 600, 898 599.923, 898 591.155 C 898 581.592, 899.243 579, 903.829 579 C 905.478 579, 906 578.399, 906 576.500 C 906 574.534, 905.492 574, 903.622 574 C 902.315 574, 900.685 574.675, 900 575.500 C 899.315 576.325, 898.360 577, 897.878 577 C 897.395 577, 897 576.325, 897 575.500 C 897 574.667, 896.111 574, 895 574 C 893.103 574, 893 574.667, 893 587 M 872.174 580.314 C 868.572 584.149, 869.357 585, 876.500 585 C 883.708 585, 884.794 583.750, 880.811 580.039 C 877.936 577.360, 874.858 577.458, 872.174 580.314 M 298.121 589.002 C 293.171 590.171, 291.826 592.684, 294.644 595.501 C 297.742 598.599, 305 594.666, 305 589.889 C 305 587.850, 303.709 587.683, 298.121 589.002" stroke="none" fill="#080808" fill-rule="evenodd"/><path d="M 44 162 L 44 280 198 280 L 352 280 352 162 L 352 44 198 44 L 44 44 44 162 M 150 134.500 L 150 152 152.500 152 C 154.958 152, 155 151.867, 155 144 L 155 136 164 136 L 173 136 173 144 C 173 151.867, 173.042 152, 175.500 152 L 178 152 178 134.500 L 178 117 175.500 117 C 173.071 117, 173 117.200, 173 124 L 173 131 164 131 L 155 131 155 124 C 155 117.200, 154.929 117, 152.500 117 L 150 117 150 134.500 M 236 122.383 C 236 124.926, 235.503 125.897, 234 126.290 C 232.900 126.577, 232 127.477, 232 128.290 C 232 129.102, 232.900 130.002, 234 130.290 C 235.821 130.766, 236 131.654, 236 140.206 C 236 150.461, 236.678 152, 241.200 152 C 243.333 152, 244 151.524, 244 150 C 244 148.900, 243.373 148, 242.607 148 C 240.585 148, 240 145.718, 240 137.825 C 240 131.654, 240.240 130.750, 242 130.290 C 243.107 130, 244 128.926, 244 127.883 C 244 126.667, 243.292 126, 242 126 C 240.381 126, 240 125.333, 240 122.500 C 240 119.667, 239.619 119, 238 119 C 236.394 119, 236 119.667, 236 122.383 M 186.962 128.750 C 181.413 133.721, 181.061 144.515, 186.278 149.732 C 189.489 152.944, 195.631 153.759, 199.916 151.543 C 203.905 149.481, 206 144.794, 206 137.932 C 206 133.429, 205.583 132.383, 202.600 129.400 C 199.722 126.522, 198.496 126, 194.616 126 C 191.026 126, 189.366 126.596, 186.962 128.750 M 212.455 128.455 C 207.419 133.490, 210.163 138.880, 218.819 140.957 C 225.550 142.571, 227.259 144.562, 224.107 147.115 C 220.941 149.678, 218.392 149.483, 215.353 146.444 C 213.947 145.038, 211.940 144.025, 210.893 144.194 C 209.051 144.490, 209.046 144.615, 210.744 148 C 212.966 152.430, 217.888 153.949, 224.041 152.106 C 227.113 151.186, 228.476 150.098, 229.444 147.796 C 231.802 142.188, 229.567 139.068, 221.607 136.854 C 216.146 135.336, 213.508 132.575, 216 130.987 C 218.598 129.331, 222.896 129.860, 224.232 132 C 224.919 133.100, 226.498 134, 227.741 134 C 230.405 134, 230.451 133.774, 228.537 130.072 C 226.784 126.681, 225.251 126, 219.373 126 C 215.967 126, 214.327 126.582, 212.455 128.455 M 190.102 131.898 C 183.812 138.188, 188.813 150.923, 196.435 148.025 C 199.693 146.786, 201 144.078, 201 138.566 C 201 131.078, 194.748 127.252, 190.102 131.898 M 584 222 L 584 280 848 280 L 1112 280 1112 222 L 1112 164 848 164 L 584 164 584 222 M 147 190.500 L 147 208 149.500 208 C 151.958 208, 152 207.867, 152 200 L 152 192 160.500 192 C 168.333 192, 169 191.843, 169 190 C 169 188.157, 168.333 188, 160.500 188 L 152 188 152 183 L 152 178 161.500 178 C 170.967 178, 171 177.991, 171 175.500 L 171 173 159 173 L 147 173 147 190.500 M 175 192.708 C 175 204.802, 175.970 207.395, 180.898 208.478 C 182.619 208.856, 185.253 208.503, 187.396 207.608 C 189.378 206.780, 191 206.529, 191 207.051 C 191 207.573, 191.900 208, 193 208 C 194.897 208, 195 207.333, 195 195 C 195 182.667, 194.897 182, 193 182 C 191.179 182, 191 182.667, 191 189.435 C 191 200.513, 189.290 203.954, 183.769 203.985 C 180.466 204.003, 180.100 202.820, 179.751 191 C 179.516 183.035, 179.358 182.480, 177.250 182.180 C 175.035 181.866, 175 182.031, 175 192.708 M 202 195 C 202 207.333, 202.103 208, 204 208 C 205.827 208, 206.001 207.328, 206.015 200.250 C 206.032 191.356, 207.364 187.948, 211.376 186.537 C 213.807 185.682, 214.478 185.872, 216.105 187.881 C 217.647 189.786, 218 191.875, 218 199.111 C 218 207.926, 218.021 208, 220.500 208 C 222.954 208, 223 207.856, 222.976 200.250 C 222.947 190.847, 221.700 184.985, 219.364 183.277 C 216.963 181.521, 210.911 181.674, 208.223 183.557 C 206.211 184.966, 206 184.966, 206 183.557 C 206 182.667, 205.143 182, 204 182 C 202.103 182, 202 182.667, 202 195 M 231.367 183.772 C 223.542 190.111, 225.670 206.194, 234.632 208.444 C 238.834 209.498, 244.812 207.265, 246.493 204.013 C 248.548 200.039, 248.391 199, 245.737 199 C 244.350 199, 243.092 199.870, 242.487 201.250 C 241.193 204.199, 236.049 204.818, 233.774 202.299 C 230.900 199.116, 231.029 190.971, 234 188 C 236.784 185.216, 240.585 185.437, 242.592 188.500 C 244.611 191.581, 248 191.866, 248 188.955 C 248 187.830, 246.895 185.805, 245.545 184.455 C 242.497 181.407, 234.748 181.034, 231.367 183.772 M 754 222.500 L 754 240 767.070 240 C 780.051 240, 780.137 239.985, 779.820 237.750 C 779.515 235.606, 779.018 235.487, 769.250 235.215 L 759 234.930 759 229.465 L 759 224 768.500 224 C 777.333 224, 778 223.860, 778 222 C 778 220.140, 777.333 220, 768.500 220 L 759 220 759 215 L 759 210 769 210 L 779 210 779 207.500 L 779 205 766.500 205 L 754 205 754 222.500 M 812.667 207.667 C 812.300 208.033, 812 209.608, 812 211.167 C 812 213.019, 811.480 214, 810.500 214 C 809.667 214, 809 214.889, 809 216 C 809 217.111, 809.667 218, 810.500 218 C 811.704 218, 812.020 219.628, 812.100 226.250 C 812.242 238.041, 812.775 239.433, 817.289 239.810 C 820.404 240.071, 821 239.809, 821 238.177 C 821 237.074, 820.135 236.007, 819 235.710 C 817.205 235.241, 817 234.346, 817 227 C 817 219.654, 817.205 218.759, 819 218.290 C 820.107 218, 821 216.926, 821 215.883 C 821 214.667, 820.292 214, 819 214 C 817.381 214, 817 213.333, 817 210.500 C 817 207.773, 816.595 207, 815.167 207 C 814.158 207, 813.033 207.300, 812.667 207.667 M 785 227 L 785 240 787.500 240 C 789.981 240, 790 239.933, 790 231 C 790 223.333, 790.296 221.704, 792 220 C 794.491 217.509, 797.189 217.446, 799.345 219.829 C 800.632 221.251, 801 223.698, 801 230.829 L 801 240 803.588 240 L 806.177 240 805.838 228.910 C 805.526 218.668, 805.319 217.673, 803.139 215.910 C 800.266 213.585, 794.290 213.408, 791.223 215.557 C 789.211 216.966, 789 216.966, 789 215.557 C 789 214.667, 788.143 214, 787 214 C 785.103 214, 785 214.667, 785 227 M 825 227 L 825 240 827.500 240 C 829.978 240, 830 239.923, 830 231.155 C 830 221.592, 831.243 219, 835.829 219 C 837.478 219, 838 218.399, 838 216.500 C 838 214.534, 837.492 214, 835.622 214 C 834.315 214, 832.685 214.675, 832 215.500 C 831.315 216.325, 830.360 217, 829.878 217 C 829.395 217, 829 216.325, 829 215.500 C 829 214.667, 828.111 214, 827 214 C 825.103 214, 825 214.667, 825 227 M 843.455 216.455 C 840.615 219.295, 840.290 221.790, 842.644 222.694 C 843.737 223.113, 844.938 222.433, 846.227 220.662 C 849.173 216.619, 856 217.204, 856 221.500 C 856 223.516, 855.274 223.914, 849.856 224.869 C 846.477 225.464, 842.877 226.707, 841.856 227.630 C 839.239 229.998, 839.378 236.128, 842.105 238.595 C 844.882 241.108, 852.048 241.172, 854.771 238.707 C 856.508 237.135, 856.826 237.104, 857.345 238.457 C 858.108 240.444, 864 240.577, 864 238.607 C 864 237.841, 863.325 236.955, 862.500 236.638 C 861.321 236.186, 861 234.145, 861 227.104 C 861 218.617, 860.861 218.036, 858.365 216.073 C 854.451 212.994, 846.717 213.192, 843.455 216.455 M 868 227 C 868 239.333, 868.103 240, 870 240 C 871.827 240, 872.001 239.328, 872.015 232.250 C 872.032 223.356, 873.364 219.948, 877.376 218.537 C 879.807 217.682, 880.478 217.872, 882.105 219.881 C 883.647 221.786, 884 223.875, 884 231.111 C 884 239.926, 884.021 240, 886.500 240 C 888.954 240, 889 239.856, 888.976 232.250 C 888.947 222.847, 887.700 216.985, 885.364 215.277 C 882.963 213.521, 876.911 213.674, 874.223 215.557 C 872.211 216.966, 872 216.966, 872 215.557 C 872 214.667, 871.143 214, 870 214 C 868.103 214, 868 214.667, 868 227 M 897.367 215.772 C 889.542 222.111, 891.670 238.194, 900.632 240.444 C 904.834 241.498, 910.812 239.265, 912.493 236.013 C 914.548 232.039, 914.391 231, 911.737 231 C 910.350 231, 909.092 231.870, 908.487 233.250 C 907.193 236.199, 902.049 236.818, 899.774 234.299 C 896.900 231.116, 897.029 222.971, 900 220 C 902.784 217.216, 906.585 217.437, 908.592 220.500 C 910.611 223.581, 914 223.866, 914 220.955 C 914 219.830, 912.895 217.805, 911.545 216.455 C 908.497 213.407, 900.748 213.034, 897.367 215.772 M 923.256 215.029 C 918.107 217.099, 915.302 227.405, 917.975 234.434 C 919.174 237.587, 924.530 240.991, 928.300 240.996 C 932.347 241.002, 936.732 238.419, 938.509 234.983 C 939.996 232.107, 939.972 232, 937.840 232 C 936.624 232, 934.611 232.956, 933.367 234.125 C 930.399 236.914, 926.118 236.864, 923.810 234.014 C 920.279 229.653, 921.233 229, 931.130 229 L 940.260 229 939.728 224.282 C 938.799 216.036, 931.271 211.807, 923.256 215.029 M 924.174 220.314 C 920.572 224.149, 921.357 225, 928.500 225 C 935.708 225, 936.794 223.750, 932.811 220.039 C 929.936 217.360, 926.858 217.458, 924.174 220.314 M 850 228.732 C 846.706 229.338, 845 230.823, 845 233.087 C 845 235.822, 848.279 237.225, 851.664 235.938 C 854.937 234.693, 855.964 233.342, 855.985 230.250 C 856 227.942, 855.285 227.760, 850 228.732 M 44 342 L 44 400 312 400 L 580 400 580 342 L 580 284 312 284 L 44 284 44 342 M 584 342 L 584 400 848 400 L 1112 400 1112 342 L 1112 284 848 284 L 584 284 584 342 M 55 342.500 L 55 360 57.500 360 C 59.958 360, 60 359.867, 60 352 L 60 344 69 344 L 78 344 78 352 C 78 359.867, 78.042 360, 80.500 360 L 83 360 83 342.500 L 83 325 80.500 325 C 78.071 325, 78 325.200, 78 332 L 78 339 69 339 L 60 339 60 332 C 60 325.200, 59.929 325, 57.500 325 L 55 325 55 342.500 M 168 342.500 L 168 360 170.500 360 C 172.958 360, 173 359.867, 173 352 L 173 344 181.500 344 C 189.333 344, 190 343.843, 190 342 C 190 340.157, 189.333 340, 181.500 340 L 173 340 173 335 L 173 330 182.500 330 C 191.967 330, 192 329.991, 192 327.500 L 192 325 180 325 L 168 325 168 342.500 M 287 327.500 C 287 329.333, 287.533 330, 289 330 C 290.467 330, 291 329.333, 291 327.500 C 291 325.667, 290.467 325, 289 325 C 287.533 325, 287 325.667, 287 327.500 M 385.975 325.750 C 385.962 326.163, 387.874 334.036, 390.225 343.247 C 394.433 359.732, 394.542 359.995, 397.208 359.997 C 400.118 360, 400.710 358.581, 405.648 339.749 C 406.622 336.035, 407.715 333.560, 408.076 334.249 C 408.437 334.937, 410.225 341.012, 412.049 347.750 C 415.280 359.681, 415.439 360, 418.145 360 C 420.516 360, 421.065 359.451, 421.891 356.250 C 424.412 346.487, 429.179 328.315, 429.630 326.750 C 430.029 325.365, 429.520 325, 427.191 325 C 424.297 325, 424.210 325.157, 422.129 334.250 C 420.964 339.337, 419.727 344.962, 419.381 346.750 C 419.034 348.538, 418.432 350, 418.044 350 C 417.655 350, 415.818 344.375, 413.960 337.500 C 410.678 325.350, 410.506 325, 407.834 325 C 405.280 325, 404.936 325.516, 402.990 332.250 C 401.838 336.238, 400.103 342.200, 399.135 345.500 L 397.375 351.500 394.623 339.500 C 393.109 332.900, 391.689 326.938, 391.467 326.250 C 391.039 324.927, 386.017 324.470, 385.975 325.750 M 720 342.500 L 720 360 733 360 L 746 360 746 357.500 L 746 355 735.448 355 L 724.895 355 725.198 349.750 L 725.500 344.500 734.750 344.212 C 743.114 343.953, 744 343.740, 744 342 C 744 340.260, 743.114 340.047, 734.750 339.788 L 725.500 339.500 725.195 334.750 L 724.890 330 735.445 330 L 746 330 746 327.500 L 746 325 733 325 L 720 325 720 342.500 M 805 327.500 C 805 329.500, 805.500 330, 807.500 330 C 809.500 330, 810 329.500, 810 327.500 C 810 325.500, 809.500 325, 807.500 325 C 805.500 325, 805 325.500, 805 327.500 M 883 342.409 L 883 360 885.456 360 C 887.812 360, 887.924 359.702, 888.206 352.750 L 888.500 345.500 896.154 345.210 C 902.853 344.956, 904.132 344.595, 906.404 342.323 C 909.940 338.787, 910.026 332.305, 906.588 328.306 C 904.272 325.610, 903.760 325.487, 893.588 325.159 L 883 324.818 883 342.409 M 968 342.500 C 968 359.333, 968.076 360, 970 360 C 971.924 360, 972 359.333, 972 342.500 C 972 325.667, 971.924 325, 970 325 C 968.076 325, 968 325.667, 968 342.500 M 141 330.383 C 141 332.926, 140.503 333.897, 139 334.290 C 137.900 334.577, 137 335.477, 137 336.290 C 137 337.102, 137.900 338.002, 139 338.290 C 140.821 338.766, 141 339.654, 141 348.206 C 141 358.461, 141.678 360, 146.200 360 C 148.333 360, 149 359.524, 149 358 C 149 356.900, 148.373 356, 147.607 356 C 145.585 356, 145 353.718, 145 345.825 C 145 339.654, 145.240 338.750, 147 338.290 C 148.107 338, 149 336.926, 149 335.883 C 149 334.667, 148.292 334, 147 334 C 145.381 334, 145 333.333, 145 330.500 C 145 327.667, 144.619 327, 143 327 C 141.394 327, 141 327.667, 141 330.383 M 274 330.430 C 274 332.937, 273.553 334, 272.500 334 C 271.667 334, 271 334.889, 271 336 C 271 337.111, 271.667 338, 272.500 338 C 273.731 338, 274 339.756, 274 347.800 C 274 358.704, 274.606 360, 279.700 360 C 282.333 360, 283 359.596, 283 358 C 283 356.667, 282.333 356, 281 356 C 279.148 356, 279 355.333, 279 347 C 279 338.667, 279.148 338, 281 338 C 283.591 338, 283.637 334.979, 281.056 334.304 C 279.747 333.962, 279.012 332.767, 278.806 330.648 C 278.574 328.260, 277.957 327.423, 276.250 327.180 C 274.277 326.900, 274 327.301, 274 330.430 M 888 335.500 L 888 341 893.777 341 C 900.435 341, 904 339.087, 904 335.515 C 904 331.432, 901.514 330, 894.429 330 L 888 330 888 335.500 M 91.962 336.750 C 86.413 341.721, 86.061 352.515, 91.278 357.732 C 94.489 360.944, 100.631 361.759, 104.916 359.543 C 108.905 357.481, 111 352.794, 111 345.932 C 111 341.429, 110.583 340.383, 107.600 337.400 C 104.722 334.522, 103.496 334, 99.616 334 C 96.026 334, 94.366 334.596, 91.962 336.750 M 117.455 336.455 C 112.419 341.490, 115.163 346.880, 123.819 348.957 C 130.550 350.571, 132.259 352.562, 129.107 355.115 C 125.941 357.678, 123.392 357.483, 120.353 354.444 C 118.947 353.038, 116.940 352.025, 115.893 352.194 C 114.051 352.490, 114.046 352.615, 115.744 356 C 117.966 360.430, 122.888 361.949, 129.041 360.106 C 132.113 359.186, 133.476 358.098, 134.444 355.796 C 136.802 350.188, 134.567 347.068, 126.607 344.854 C 121.146 343.336, 118.508 340.575, 121 338.987 C 123.598 337.331, 127.896 337.860, 129.232 340 C 129.919 341.100, 131.498 342, 132.741 342 C 135.405 342, 135.451 341.774, 133.537 338.072 C 131.784 334.681, 130.251 334, 124.373 334 C 120.967 334, 119.327 334.582, 117.455 336.455 M 196 344.708 C 196 356.802, 196.970 359.395, 201.898 360.478 C 203.619 360.856, 206.253 360.503, 208.396 359.608 C 210.378 358.780, 212 358.529, 212 359.051 C 212 359.573, 212.900 360, 214 360 C 215.897 360, 216 359.333, 216 347 C 216 334.667, 215.897 334, 214 334 C 212.179 334, 212 334.667, 212 341.435 C 212 352.513, 210.290 355.954, 204.769 355.985 C 201.466 356.003, 201.100 354.820, 200.751 343 C 200.516 335.035, 200.358 334.480, 198.250 334.180 C 196.035 333.866, 196 334.031, 196 344.708 M 223 347 C 223 359.333, 223.103 360, 225 360 C 226.827 360, 227.001 359.328, 227.015 352.250 C 227.032 343.356, 228.364 339.948, 232.376 338.537 C 234.807 337.682, 235.478 337.872, 237.105 339.881 C 238.647 341.786, 239 343.875, 239 351.111 C 239 359.926, 239.021 360, 241.500 360 C 243.954 360, 244 359.856, 243.976 352.250 C 243.947 342.847, 242.700 336.985, 240.364 335.277 C 237.963 333.521, 231.911 333.674, 229.223 335.557 C 227.211 336.966, 227 336.966, 227 335.557 C 227 334.667, 226.143 334, 225 334 C 223.103 334, 223 334.667, 223 347 M 252.367 335.772 C 244.542 342.111, 246.670 358.194, 255.632 360.444 C 259.834 361.498, 265.812 359.265, 267.493 356.013 C 269.548 352.039, 269.391 351, 266.737 351 C 265.350 351, 264.092 351.870, 263.487 353.250 C 262.193 356.199, 257.049 356.818, 254.774 354.299 C 251.900 351.116, 252.029 342.971, 255 340 C 257.784 337.216, 261.585 337.437, 263.592 340.500 C 265.611 343.581, 269 343.866, 269 340.955 C 269 339.830, 267.895 337.805, 266.545 336.455 C 263.497 333.407, 255.748 333.034, 252.367 335.772 M 287 347 C 287 359.333, 287.103 360, 289 360 C 290.897 360, 291 359.333, 291 347 C 291 334.667, 290.897 334, 289 334 C 287.103 334, 287 334.667, 287 347 M 299.962 336.750 C 294.413 341.721, 294.061 352.515, 299.278 357.732 C 302.489 360.944, 308.631 361.759, 312.916 359.543 C 316.905 357.481, 319 352.794, 319 345.932 C 319 341.429, 318.583 340.383, 315.600 337.400 C 312.722 334.522, 311.496 334, 307.616 334 C 304.026 334, 302.366 334.596, 299.962 336.750 M 324 347 L 324 360 326.500 360 C 328.981 360, 329 359.933, 329 351 C 329 343.333, 329.296 341.704, 331 340 C 333.491 337.509, 336.189 337.446, 338.345 339.829 C 339.632 341.251, 340 343.698, 340 350.829 L 340 360 342.588 360 L 345.177 360 344.838 348.910 C 344.526 338.668, 344.319 337.673, 342.139 335.910 C 339.266 333.585, 333.290 333.408, 330.223 335.557 C 328.211 336.966, 328 336.966, 328 335.557 C 328 334.667, 327.143 334, 326 334 C 324.103 334, 324 334.667, 324 347 M 352.635 336.073 C 350.738 337.565, 350 339.071, 350 341.450 C 350 345.527, 351.374 346.714, 358.723 348.985 C 364.940 350.906, 366.638 353.329, 363.418 355.684 C 360.719 357.657, 358.193 357.283, 355.409 354.500 C 352.126 351.217, 348.581 351.066, 349.551 354.250 C 350.625 357.773, 352.988 359.907, 356.559 360.577 C 364.011 361.975, 370 358.302, 370 352.334 C 370 348.447, 367.865 346.743, 360.109 344.440 C 355.660 343.118, 354.923 342.557, 355.188 340.693 C 355.632 337.575, 361.230 337.078, 363.680 339.940 C 365.935 342.573, 369 342.650, 369 340.073 C 369 336.994, 364.316 334, 359.500 334 C 356.735 334, 354.357 334.718, 352.635 336.073 M 432.667 334.667 C 432.300 335.033, 432 340.883, 432 347.667 L 432 360 434.500 360 C 436.943 360, 437 359.830, 437 352.547 C 437 343.549, 438.361 340.078, 442.189 339.312 C 444.323 338.885, 445 338.178, 445 336.375 C 445 333.560, 442.565 333.215, 439.223 335.557 C 437.211 336.966, 437 336.966, 437 335.557 C 437 334.013, 433.947 333.386, 432.667 334.667 M 452.500 335.195 C 449.870 336.686, 449.034 338.019, 449.015 340.750 C 449.005 342.238, 449.597 343, 450.763 343 C 451.732 343, 452.970 341.988, 453.513 340.750 C 454.293 338.971, 455.315 338.500, 458.391 338.500 C 460.986 338.500, 462.644 339.074, 463.369 340.222 C 464.851 342.572, 463.315 343.935, 458.414 344.619 C 452.080 345.504, 449.249 346.985, 447.964 350.086 C 446.313 354.073, 448.167 358.412, 452.242 360.100 C 454.825 361.170, 456.037 361.111, 459.875 359.731 C 462.385 358.829, 464.677 358.440, 464.969 358.868 C 465.909 360.245, 468.642 360.839, 470.044 359.973 C 471.121 359.307, 471.165 358.643, 470.254 356.815 C 469.620 355.542, 468.960 350.743, 468.789 346.152 C 468.514 338.800, 468.196 337.577, 466.127 335.902 C 463.458 333.741, 455.768 333.342, 452.500 335.195 M 475 352 C 475 369.333, 475.074 370, 477 370 C 478.762 370, 479 369.333, 479 364.393 C 479 359.462, 479.211 358.868, 480.750 359.463 C 487.185 361.952, 491.988 360.709, 494.996 355.775 C 498.750 349.618, 497.062 337.709, 492.055 335.030 C 489.220 333.512, 483.763 333.777, 481.223 335.557 C 479.211 336.966, 479 336.966, 479 335.557 C 479 334.667, 478.143 334, 477 334 C 475.074 334, 475 334.667, 475 352 M 502 352 C 502 369.333, 502.074 370, 504 370 C 505.776 370, 506 369.333, 506 364.047 L 506 358.093 508.874 359.743 C 511.336 361.155, 512.341 361.214, 515.878 360.155 C 520.639 358.728, 522.955 355.757, 523.713 350.101 C 524.959 340.815, 520.884 334, 514.086 334 C 512.084 334, 509.445 334.701, 508.223 335.557 C 506.211 336.966, 506 336.966, 506 335.557 C 506 334.667, 505.143 334, 504 334 C 502.074 334, 502 334.667, 502 352 M 531.479 337.321 C 525.764 343.036, 525.803 352.648, 531.564 358.060 C 533.603 359.975, 535.237 360.500, 539.163 360.500 C 543.548 360.500, 544.524 360.098, 547.082 357.234 C 548.687 355.438, 550 353.526, 550 352.984 C 550 351.391, 545.268 351.859, 544.633 353.515 C 543.778 355.741, 539.432 357.115, 536.623 356.047 C 535.315 355.550, 533.769 353.777, 533.188 352.108 L 532.130 349.073 541.315 348.787 L 550.500 348.500 550.286 345.500 C 549.887 339.895, 548.951 337.941, 545.723 335.973 C 540.628 332.866, 535.443 333.357, 531.479 337.321 M 555.667 334.667 C 555.300 335.033, 555 340.883, 555 347.667 L 555 360 557.500 360 C 559.965 360, 560 359.885, 560 351.723 C 560 342.407, 561.488 339, 565.557 339 C 567.496 339, 568 338.485, 568 336.500 C 568 334.534, 567.492 334, 565.622 334 C 564.315 334, 562.661 334.703, 561.948 335.563 C 560.771 336.981, 560.569 336.981, 559.775 335.563 C 558.871 333.946, 556.832 333.501, 555.667 334.667 M 751.667 334.667 C 751.300 335.033, 751 340.883, 751 347.667 L 751 360 753.500 360 C 755.972 360, 756 359.903, 756 351.455 C 756 343.715, 756.231 342.678, 758.455 340.455 C 761.254 337.655, 762.820 337.417, 765.507 339.382 C 767.074 340.527, 767.469 342.408, 767.818 350.382 C 768.194 358.981, 768.438 360, 770.119 360 C 771.846 360, 772 359.101, 772 349 C 772 339.333, 771.758 337.758, 770 336 C 767.557 333.557, 761.408 333.325, 758.223 335.557 C 756.211 336.966, 756 336.966, 756 335.557 C 756 334.013, 752.947 333.386, 751.667 334.667 M 782.420 335.101 C 778.330 337.171, 776.414 342.758, 776.855 351.327 C 777.073 355.583, 781.980 360, 786.489 360 C 788.492 360, 791.002 359.534, 792.066 358.965 C 793.735 358.072, 794 358.267, 794 360.393 C 794 365.808, 787.178 368.213, 782.832 364.329 C 781.915 363.510, 780.238 362.988, 779.106 363.170 C 777.259 363.466, 777.176 363.758, 778.295 366 C 780.130 369.673, 786.415 371.466, 791.562 369.786 C 797.792 367.752, 798.997 364.263, 798.998 348.251 L 799 335.001 795.750 335.029 C 793.962 335.045, 790.700 334.830, 788.500 334.552 C 786.300 334.275, 783.564 334.522, 782.420 335.101 M 805 346.930 L 805 360 807.530 360 L 810.060 360 809.780 347.250 C 809.508 334.887, 809.432 334.490, 807.250 334.180 C 805.015 333.863, 805 333.949, 805 346.930 M 816 347 C 816 359.333, 816.103 360, 818 360 C 819.827 360, 820.001 359.328, 820.015 352.250 C 820.032 343.356, 821.364 339.948, 825.376 338.537 C 827.807 337.682, 828.478 337.872, 830.105 339.881 C 831.647 341.786, 832 343.875, 832 351.111 C 832 359.926, 832.021 360, 834.500 360 C 836.954 360, 837 359.856, 836.976 352.250 C 836.947 342.847, 835.700 336.985, 833.364 335.277 C 830.963 333.521, 824.911 333.674, 822.223 335.557 C 820.211 336.966, 820 336.966, 820 335.557 C 820 334.667, 819.143 334, 818 334 C 816.103 334, 816 334.667, 816 347 M 847.256 335.029 C 842.107 337.099, 839.302 347.405, 841.975 354.434 C 843.174 357.587, 848.530 360.991, 852.300 360.996 C 856.347 361.002, 860.732 358.419, 862.509 354.983 C 863.996 352.107, 863.972 352, 861.840 352 C 860.624 352, 858.611 352.956, 857.367 354.125 C 854.399 356.914, 850.118 356.864, 847.810 354.014 C 844.279 349.653, 845.233 349, 855.130 349 L 864.260 349 863.728 344.282 C 862.799 336.036, 855.271 331.807, 847.256 335.029 M 916.822 336.868 C 913.963 339.423, 913.569 340.434, 913.218 346.118 C 912.882 351.571, 913.170 353.009, 915.196 356 C 917.975 360.102, 923.071 361.843, 928.089 360.404 C 936.381 358.025, 939.345 343.498, 932.861 337.015 C 930.327 334.481, 929.063 334, 924.939 334 C 920.949 334, 919.431 334.536, 916.822 336.868 M 942.955 337.048 C 939.126 341.147, 938.166 347.528, 940.471 353.563 C 943.092 360.427, 949.042 362.681, 956.411 359.602 C 960.784 357.774, 963.506 351.181, 962.730 344.294 C 961.969 337.545, 957.890 334, 950.885 334 C 946.509 334, 945.406 334.424, 942.955 337.048 M 95.102 339.898 C 88.812 346.188, 93.813 358.923, 101.435 356.025 C 104.693 354.786, 106 352.078, 106 346.566 C 106 339.078, 99.748 335.252, 95.102 339.898 M 303.102 339.898 C 296.812 346.188, 301.813 358.923, 309.435 356.025 C 312.693 354.786, 314 352.078, 314 346.566 C 314 339.078, 307.748 335.252, 303.102 339.898 M 482.137 339.863 C 479.410 342.590, 478.641 348.206, 480.414 352.447 C 481.713 355.557, 482.334 356, 485.392 356 C 489.940 356, 492 353.125, 492 346.777 C 492 339.221, 486.580 335.420, 482.137 339.863 M 508.405 340.105 C 506.095 342.658, 505.753 351.793, 507.872 354.346 C 509.927 356.822, 515.545 356.488, 517.443 353.777 C 519.747 350.488, 519.490 342.490, 517 340 C 514.409 337.409, 510.805 337.453, 508.405 340.105 M 535 340 C 531.314 343.686, 532.365 345, 539 345 C 544.275 345, 545 344.765, 545 343.057 C 545 340.868, 541.471 338, 538.777 338 C 537.800 338, 536.100 338.900, 535 340 M 784.825 339.038 C 780.932 341.310, 780.194 351.051, 783.653 354.510 C 785.914 356.771, 790.621 356.379, 792.443 353.777 C 794.038 351.501, 794.557 343.380, 793.235 341.400 C 792.413 340.169, 788.573 337.984, 787.316 338.030 C 786.867 338.047, 785.746 338.501, 784.825 339.038 M 848.174 340.314 C 844.572 344.149, 845.357 345, 852.500 345 C 859.708 345, 860.794 343.750, 856.811 340.039 C 853.936 337.360, 850.858 337.458, 848.174 340.314 M 920.073 340.635 C 916.216 345.537, 918.105 355.490, 923 356.062 C 928.501 356.704, 931.352 353.351, 931.247 346.363 C 931.126 338.372, 924.517 334.984, 920.073 340.635 M 946.405 340.105 C 943.862 342.915, 943.733 352.162, 946.202 354.631 C 948.300 356.729, 953.578 356.851, 955.581 354.847 C 957.382 353.047, 958.475 347.030, 957.621 343.624 C 956.212 338.012, 950.049 336.078, 946.405 340.105 M 457.121 349.002 C 452.171 350.171, 450.826 352.684, 453.644 355.501 C 456.742 358.599, 464 354.666, 464 349.889 C 464 347.850, 462.709 347.683, 457.121 349.002 M 44 462 L 44 520 538 520 L 1032 520 1032 462 L 1032 404 538 404 L 44 404 44 462 M 1036 462 L 1036 520 1054 520 L 1072 520 1072 462 L 1072 404 1054 404 L 1036 404 1036 462 M 1076 462 L 1076 520 1094 520 L 1112 520 1112 462 L 1112 404 1094 404 L 1076 404 1076 462 M 365 462.500 L 365 480 378 480 L 391 480 391 477.500 L 391 475 380.500 475 L 370 475 370 469.500 L 370 464 379.500 464 C 388.333 464, 389 463.860, 389 462 C 389 460.140, 388.333 460, 379.500 460 L 370 460 370 455 L 370 450 380.500 450 L 391 450 391 447.500 L 391 445 378 445 L 365 445 365 462.500 M 449 447.500 C 449 449.500, 449.500 450, 451.500 450 C 453.500 450, 454 449.500, 454 447.500 C 454 445.500, 453.500 445, 451.500 445 C 449.500 445, 449 445.500, 449 447.500 M 528.667 445.667 C 528.300 446.033, 528 453.908, 528 463.167 L 528 480 531 480 L 534 480 534 462.500 L 534 445 531.667 445 C 530.383 445, 529.033 445.300, 528.667 445.667 M 625.200 446.200 C 624.540 446.860, 624 448.885, 624 450.700 C 624 454.145, 623.530 454.404, 617.920 454.048 C 616.501 453.959, 614.759 454.586, 614.048 455.442 C 612.410 457.416, 611 457.442, 611 455.500 C 611 454.667, 610.111 454, 609 454 C 607.103 454, 607 454.667, 607 467 L 607 480 609.500 480 C 611.978 480, 612 479.923, 612 471.155 C 612 460.975, 612.807 459.659, 619.750 458.521 L 624 457.824 624 468.912 L 624 480 626.500 480 L 629 480 629 469 C 629 458.667, 629.121 458, 631 458 C 632.163 458, 633 457.333, 633 456.406 C 633 455.530, 632.100 454.577, 631 454.290 C 629.706 453.951, 629 452.926, 629 451.383 C 629 449.667, 629.559 449, 631 449 C 632.333 449, 633 448.333, 633 447 C 633 445.404, 632.333 445, 629.700 445 C 627.885 445, 625.860 445.540, 625.200 446.200 M 568 450.383 C 568 452.926, 567.503 453.897, 566 454.290 C 564.900 454.577, 564 455.477, 564 456.290 C 564 457.102, 564.900 458.002, 566 458.290 C 567.821 458.766, 568 459.654, 568 468.206 C 568 478.461, 568.678 480, 573.200 480 C 575.333 480, 576 479.524, 576 478 C 576 476.900, 575.373 476, 574.607 476 C 572.585 476, 572 473.718, 572 465.825 C 572 459.654, 572.240 458.750, 574 458.290 C 575.107 458, 576 456.926, 576 455.883 C 576 454.667, 575.292 454, 574 454 C 572.381 454, 572 453.333, 572 450.500 C 572 447.667, 571.619 447, 570 447 C 568.394 447, 568 447.667, 568 450.383 M 396 467 L 396 480 398.500 480 C 400.978 480, 401 479.922, 401 471.174 C 401 463.040, 401.197 462.164, 403.515 459.986 C 405.611 458.017, 406.484 457.784, 408.765 458.584 C 411.477 459.536, 411.502 459.631, 411.785 469.772 C 412.067 479.899, 412.094 480, 414.535 480 C 416.996 480, 417 479.985, 417 469.635 C 417 460.663, 416.721 458.916, 414.927 456.635 C 412.662 453.755, 407.632 453.056, 403.827 455.093 C 402.350 455.883, 401.483 455.883, 400.693 455.093 C 400.092 454.492, 398.790 454, 397.800 454 C 396.159 454, 396 455.148, 396 467 M 426.942 455.427 C 419.613 459.540, 419.376 475.572, 426.595 478.861 C 429.710 480.281, 434.519 480.328, 437.066 478.965 C 438.667 478.108, 439 478.261, 439 479.854 C 439 485.097, 432.039 488.155, 428.138 484.625 C 426.305 482.966, 422 482.372, 422 483.777 C 422 485.818, 425.406 489.018, 428.480 489.867 C 432.391 490.947, 438.569 489.860, 440.714 487.714 C 443.006 485.423, 443.951 479.343, 443.976 466.726 L 444 454.952 440.250 455.017 C 438.188 455.053, 434.925 454.836, 433 454.537 C 430.859 454.203, 428.507 454.549, 426.942 455.427 M 449.667 454.667 C 449.300 455.033, 449 460.883, 449 467.667 L 449 480 451.500 480 L 454 480 454 467 C 454 455.061, 453.850 454, 452.167 454 C 451.158 454, 450.033 454.300, 449.667 454.667 M 460 467 L 460 480 462.500 480 C 464.978 480, 465 479.922, 465 471.174 C 465 463.040, 465.197 462.164, 467.515 459.986 C 469.611 458.017, 470.484 457.784, 472.765 458.584 C 475.477 459.536, 475.502 459.631, 475.785 469.772 C 476.067 479.899, 476.094 480, 478.535 480 C 480.996 480, 481 479.985, 481 469.635 C 481 460.663, 480.721 458.916, 478.927 456.635 C 476.662 453.755, 471.632 453.056, 467.827 455.093 C 466.350 455.883, 465.483 455.883, 464.693 455.093 C 464.092 454.492, 462.790 454, 461.800 454 C 460.159 454, 460 455.148, 460 467 M 489.962 456.750 C 482.215 463.690, 485.155 478.813, 494.595 480.584 C 500.528 481.697, 508 477.489, 508 473.035 C 508 471.406, 503.280 471.828, 502.633 473.515 C 501.722 475.889, 497.253 477.202, 494.685 475.850 C 492.035 474.456, 491.036 473.066, 491.015 470.750 C 491.002 469.212, 492.089 469, 500 469 L 509 469 508.998 466.250 C 508.996 462.342, 505.937 456.746, 503 455.279 C 498.638 453.099, 493.374 453.693, 489.962 456.750 M 540 467 L 540 480 542.500 480 C 544.978 480, 545 479.922, 545 471.174 C 545 463.040, 545.197 462.164, 547.515 459.986 C 549.611 458.017, 550.484 457.784, 552.765 458.584 C 555.477 459.536, 555.502 459.631, 555.785 469.772 C 556.067 479.899, 556.094 480, 558.535 480 C 560.996 480, 561 479.985, 561 469.635 C 561 460.663, 560.721 458.916, 558.927 456.635 C 556.662 453.755, 551.632 453.056, 547.827 455.093 C 546.350 455.883, 545.483 455.883, 544.693 455.093 C 544.092 454.492, 542.790 454, 541.800 454 C 540.159 454, 540 455.148, 540 467 M 585.256 455.029 C 580.107 457.099, 577.302 467.405, 579.975 474.434 C 581.174 477.587, 586.530 480.991, 590.300 480.996 C 594.347 481.002, 598.732 478.419, 600.509 474.983 C 601.996 472.107, 601.972 472, 599.840 472 C 598.624 472, 596.611 472.956, 595.367 474.125 C 592.399 476.914, 588.118 476.864, 585.810 474.014 C 582.279 469.653, 583.233 469, 593.130 469 L 602.260 469 601.728 464.282 C 600.799 456.036, 593.271 451.807, 585.256 455.029 M 640.235 454.982 C 637.890 455.981, 635.558 460.477, 636.552 462.084 C 637.579 463.746, 639.744 463.040, 641.408 460.500 C 643.334 457.560, 647.965 457.108, 650.473 459.616 C 653.489 462.631, 652.021 463.585, 641.225 465.622 C 635.772 466.650, 633.275 473.092, 636.529 477.738 C 638.643 480.756, 644.055 481.618, 648.129 479.585 C 650.322 478.492, 651.697 478.297, 652.385 478.985 C 654.021 480.621, 659 480.233, 659 478.469 C 659 477.626, 658.325 476.678, 657.500 476.362 C 656.316 475.907, 656 473.833, 656 466.515 C 656 459.335, 655.648 456.953, 654.439 455.950 C 652.482 454.325, 643.254 453.697, 640.235 454.982 M 664.955 457.048 C 658.938 463.490, 660.521 476.649, 667.674 479.637 C 673.877 482.229, 680.612 479.318, 682.452 473.250 C 683.028 471.351, 682.759 471, 680.728 471 C 679.131 471, 677.938 471.841, 677.182 473.500 C 676.283 475.473, 675.306 476, 672.547 476 C 669.634 476, 668.779 475.473, 667.416 472.837 C 664.308 466.828, 667.383 458, 672.584 458 C 674.874 458, 678 460.350, 678 462.071 C 678 462.582, 679.125 463, 680.500 463 C 683.377 463, 683.582 462.026, 681.537 458.072 C 679.780 454.675, 678.253 454, 672.319 454 C 668.574 454, 667.316 454.521, 664.955 457.048 M 689.962 456.750 C 682.215 463.690, 685.155 478.813, 694.595 480.584 C 700.528 481.697, 708 477.489, 708 473.035 C 708 471.406, 703.280 471.828, 702.633 473.515 C 701.722 475.889, 697.253 477.202, 694.685 475.850 C 692.035 474.456, 691.036 473.066, 691.015 470.750 C 691.002 469.212, 692.089 469, 700 469 L 709 469 708.998 466.250 C 708.996 462.342, 705.937 456.746, 703 455.279 C 698.638 453.099, 693.374 453.693, 689.962 456.750 M 429.012 459.789 C 424.689 463.290, 425.662 474.926, 430.354 475.830 C 435.651 476.850, 439 473.200, 439 466.407 C 439 464.026, 438.216 462.125, 436.545 460.455 C 433.625 457.534, 431.977 457.388, 429.012 459.789 M 493.189 460.039 C 489.206 463.750, 490.292 465, 497.500 465 C 504.653 465, 505.330 464.239, 501.545 460.455 C 498.557 457.466, 496.083 457.343, 493.189 460.039 M 586.174 460.314 C 582.572 464.149, 583.357 465, 590.500 465 C 597.708 465, 598.794 463.750, 594.811 460.039 C 591.936 457.360, 588.858 457.458, 586.174 460.314 M 693.189 460.039 C 689.206 463.750, 690.292 465, 697.500 465 C 704.653 465, 705.330 464.239, 701.545 460.455 C 698.557 457.466, 696.083 457.343, 693.189 460.039 M 645.413 468.943 C 643.715 469.349, 641.802 470.004, 641.163 470.399 C 639.287 471.558, 639.826 474.837, 642.091 476.049 C 646.040 478.162, 652 473.884, 652 468.935 C 652 467.871, 649.887 467.873, 645.413 468.943 M 44 582 L 44 640 312 640 L 580 640 580 582 L 580 524 312 524 L 44 524 44 582 M 584 582 L 584 640 848 640 L 1112 640 1112 582 L 1112 524 848 524 L 584 524 584 582 M 797.500 565.412 C 791.043 568.282, 788 573.835, 788 582.749 C 788 594.646, 795.215 601.810, 806.140 600.761 C 811.645 600.232, 815.373 597.971, 818.632 593.185 C 822.629 587.316, 822.578 576.583, 818.524 570.396 C 815.014 565.040, 804.138 562.461, 797.500 565.412 M 243.975 565.750 C 243.962 566.163, 245.874 574.036, 248.225 583.247 C 252.433 599.732, 252.542 599.995, 255.208 599.997 C 258.118 600, 258.710 598.581, 263.648 579.749 C 264.622 576.035, 265.715 573.560, 266.076 574.249 C 266.437 574.937, 268.225 581.013, 270.049 587.750 C 273.280 599.681, 273.439 600, 276.145 600 C 278.516 600, 279.065 599.451, 279.891 596.250 C 282.412 586.487, 287.179 568.315, 287.630 566.750 C 288.029 565.365, 287.520 565, 285.191 565 C 282.297 565, 282.210 565.157, 280.129 574.250 C 278.964 579.337, 277.727 584.962, 277.381 586.750 C 277.034 588.538, 276.432 590, 276.044 590 C 275.655 590, 273.818 584.375, 271.960 577.500 C 268.678 565.350, 268.506 565, 265.834 565 C 263.280 565, 262.936 565.516, 260.990 572.250 C 259.838 576.237, 258.103 582.200, 257.135 585.500 L 255.375 591.500 252.623 579.500 C 251.109 572.900, 249.689 566.938, 249.467 566.250 C 249.039 564.927, 244.017 564.470, 243.975 565.750 M 839 582.500 L 839 600 841.500 600 C 843.972 600, 844 599.903, 844 591.455 C 844 583.715, 844.231 582.678, 846.455 580.455 C 849.154 577.755, 852.163 577.286, 853.837 579.304 C 854.433 580.021, 855.050 584.859, 855.210 590.054 C 855.484 598.987, 855.622 599.517, 857.750 599.820 C 859.967 600.134, 860 599.977, 860 589.070 C 860 579.333, 859.759 577.759, 858 576 C 855.557 573.557, 849.408 573.325, 846.223 575.557 L 844 577.113 844 571.057 C 844 565.263, 843.891 565, 841.500 565 L 839 565 839 582.500 M 827 570.430 C 827 572.937, 826.553 574, 825.500 574 C 824.667 574, 824 574.889, 824 576 C 824 577.111, 824.667 578, 825.500 578 C 826.731 578, 827 579.756, 827 587.800 C 827 598.704, 827.606 600, 832.700 600 C 835.333 600, 836 599.596, 836 598 C 836 596.667, 835.333 596, 834 596 C 832.148 596, 832 595.333, 832 587 C 832 578.667, 832.148 578, 834 578 C 836.591 578, 836.637 574.979, 834.056 574.304 C 832.747 573.962, 832.012 572.767, 831.806 570.648 C 831.574 568.260, 830.957 567.423, 829.250 567.180 C 827.277 566.900, 827 567.301, 827 570.430 M 798.881 570.503 C 791.615 574.452, 791.133 589.478, 798.117 594.369 C 801.069 596.437, 807.877 596.475, 810.783 594.439 C 814.062 592.143, 816 587.708, 816 582.500 C 816 571.746, 807.524 565.806, 798.881 570.503 M 293.500 575.195 C 290.870 576.686, 290.034 578.019, 290.015 580.750 C 290.005 582.238, 290.597 583, 291.763 583 C 292.732 583, 293.970 581.987, 294.513 580.750 C 295.293 578.971, 296.315 578.500, 299.391 578.500 C 301.986 578.500, 303.644 579.074, 304.369 580.222 C 305.851 582.572, 304.315 583.935, 299.414 584.619 C 293.080 585.504, 290.249 586.985, 288.964 590.086 C 287.313 594.073, 289.167 598.412, 293.242 600.100 C 295.825 601.170, 297.037 601.111, 300.875 599.731 C 303.385 598.829, 305.677 598.440, 305.969 598.868 C 306.909 600.245, 309.642 600.839, 311.044 599.973 C 312.121 599.307, 312.165 598.643, 311.254 596.815 C 310.620 595.542, 309.960 590.743, 309.789 586.152 C 309.514 578.800, 309.196 577.577, 307.127 575.902 C 304.458 573.741, 296.768 573.342, 293.500 575.195 M 317.455 576.455 C 312.419 581.490, 315.163 586.880, 323.819 588.957 C 330.550 590.571, 332.259 592.562, 329.107 595.115 C 325.941 597.678, 323.392 597.483, 320.353 594.444 C 318.947 593.038, 316.940 592.025, 315.893 592.194 C 314.051 592.490, 314.046 592.615, 315.744 596 C 317.966 600.430, 322.888 601.949, 329.041 600.106 C 332.113 599.186, 333.476 598.098, 334.444 595.796 C 336.802 590.188, 334.567 587.068, 326.607 584.854 C 321.146 583.336, 318.508 580.575, 321 578.987 C 323.598 577.331, 327.896 577.860, 329.232 580 C 329.919 581.100, 331.498 582, 332.741 582 C 335.405 582, 335.451 581.774, 333.537 578.072 C 331.784 574.681, 330.251 574, 324.373 574 C 320.967 574, 319.327 574.582, 317.455 576.455 M 340 587 L 340 600 342.500 600 C 344.981 600, 345 599.933, 345 591 C 345 583.333, 345.296 581.704, 347 580 C 349.190 577.810, 350.726 577.541, 352.962 578.956 C 354.038 579.636, 354.531 582.539, 354.829 589.940 C 355.192 598.983, 355.423 600, 357.116 600 C 358.792 600, 359 599.180, 359 592.565 C 359 583.729, 360.088 580.373, 363.450 578.841 C 367.962 576.785, 369 578.896, 369 590.122 C 369 599.992, 369.002 600, 371.500 600 L 374 600 374 589.934 C 374 580.366, 373.122 576.449, 370.600 574.765 C 368.751 573.531, 362.563 573.917, 360.446 575.400 C 358.733 576.600, 358.174 576.600, 356.532 575.400 C 354.295 573.764, 349.669 573.572, 346.995 575.003 C 345.743 575.673, 344.916 575.673, 344.502 575.003 C 344.161 574.451, 343.009 574, 341.941 574 C 340.119 574, 340 574.798, 340 587 M 871.256 575.029 C 866.107 577.099, 863.302 587.405, 865.975 594.434 C 867.174 597.587, 872.530 600.991, 876.300 600.996 C 880.347 601.002, 884.732 598.419, 886.509 594.983 C 887.996 592.107, 887.972 592, 885.840 592 C 884.624 592, 882.611 592.956, 881.367 594.125 C 878.399 596.914, 874.118 596.864, 871.810 594.014 C 868.279 589.653, 869.233 589, 879.130 589 L 888.260 589 887.728 584.282 C 886.799 576.036, 879.271 571.807, 871.256 575.029 M 893 587 L 893 600 895.500 600 C 897.978 600, 898 599.923, 898 591.155 C 898 581.592, 899.243 579, 903.829 579 C 905.478 579, 906 578.399, 906 576.500 C 906 574.534, 905.492 574, 903.622 574 C 902.315 574, 900.685 574.675, 900 575.500 C 899.315 576.325, 898.360 577, 897.878 577 C 897.395 577, 897 576.325, 897 575.500 C 897 574.667, 896.111 574, 895 574 C 893.103 574, 893 574.667, 893 587 M 872.174 580.314 C 868.572 584.149, 869.357 585, 876.500 585 C 883.708 585, 884.794 583.750, 880.811 580.039 C 877.936 577.360, 874.858 577.458, 872.174 580.314 M 298.121 589.002 C 293.171 590.171, 291.826 592.684, 294.644 595.501 C 297.742 598.599, 305 594.666, 305 589.889 C 305 587.850, 303.709 587.683, 298.121 589.002" stroke="none" fill="#fbfbfb" fill-rule="evenodd"/></svg>
